<svg width="1441" height="960" viewBox="0 0 1441 960" fill="none" xmlns="http://www.w3.org/2000/svg">
<rect width="1440" height="960" fill="url(#paint0_linear_346_2514)"/>
<path d="M1311 776.54C1382.09 766.148 1373.33 908.207 1362 959.54H1404.5C1425.7 939.94 1413.33 842.707 1404.5 796.54C1420.17 775.707 1448.8 722.04 1438 674.04C1427.2 626.04 1411.17 654.04 1404.5 674.04C1399.33 708.207 1383.6 771.14 1362 749.54C1340.4 727.94 1330.67 690.207 1328.5 674.04C1347.83 645.707 1381.6 579.74 1362 542.54C1342.4 505.34 1331.5 527.04 1328.5 542.54C1330.83 573.707 1328.3 636.04 1299.5 636.04C1270.7 636.04 1299 716.873 1311 749.54C1261 715.54 1254.17 658.667 1255 624.5L1206 636.04C1212.67 660.54 1215.5 790.5 1311 776.54Z" fill="url(#paint1_linear_346_2514)"/>
<path d="M753.832 798.975C821.723 819.389 816.065 914.831 804.75 960H847.182C868.348 942.754 856.001 857.196 847.182 816.573C862.823 798.241 891.411 751.019 880.628 708.783C869.845 666.547 853.838 691.185 847.182 708.783C842.023 738.847 826.315 794.223 804.75 775.217C783.185 756.211 773.467 723.008 771.304 708.783C790.606 683.852 824.319 625.807 804.75 593.074C785.181 560.341 774.299 579.435 771.304 593.074C773.633 620.498 771.104 675.346 742.35 675.346C713.596 675.346 730.369 732.834 742.35 761.578C692.43 731.661 681.614 664.054 682.446 633.99L649 708.783C655.656 730.341 685.941 778.561 753.832 798.975Z" fill="url(#paint2_linear_346_2514)"/>
<path d="M94.9757 810.267C156.484 829.25 151.358 917.999 141.107 960H179.549C198.725 943.963 187.539 864.406 179.549 826.632C193.72 809.586 219.62 765.675 209.851 726.401C200.082 687.127 185.58 710.037 179.549 726.401C174.876 754.356 160.645 805.849 141.107 788.176C121.569 770.502 112.765 739.629 110.805 726.401C128.293 703.218 158.836 649.244 141.107 618.806C123.378 588.369 113.519 606.124 110.805 618.806C112.916 644.307 110.624 695.309 84.5736 695.309C58.5232 695.309 73.7193 748.765 84.5736 775.493C39.3471 747.674 29.548 684.808 30.3018 656.853L0 726.401C6.03021 746.447 33.4676 791.285 94.9757 810.267Z" fill="url(#paint3_linear_346_2514)"/>
<path d="M604.832 821.142C672.723 838.746 667.065 921.049 655.75 960H698.182C719.348 945.128 707.001 871.348 698.182 836.318C713.823 820.51 742.411 779.788 731.628 743.366C720.845 706.944 704.838 728.19 698.182 743.366C693.023 769.291 677.315 817.044 655.75 800.655C634.185 784.265 624.467 755.633 622.304 743.366C641.606 721.867 675.319 671.812 655.75 643.586C636.181 615.359 625.299 631.824 622.304 643.586C624.633 667.234 622.104 714.532 593.35 714.532C564.596 714.532 581.369 764.106 593.35 788.893C543.43 763.095 532.614 704.794 533.446 678.869L500 743.366C506.656 761.956 536.941 803.538 604.832 821.142Z" fill="url(#paint4_linear_346_2514)"/>
<path d="M1062.17 820.724C994.277 838.381 999.935 920.932 1011.25 960H968.818C947.652 945.083 959.999 871.081 968.818 835.945C953.177 820.089 924.589 779.245 935.372 742.714C946.155 706.182 962.162 727.492 968.818 742.714C973.977 768.717 989.685 816.614 1011.25 800.175C1032.82 783.735 1042.53 755.018 1044.7 742.714C1025.39 721.15 991.681 670.944 1011.25 642.632C1030.82 614.321 1041.7 630.836 1044.7 642.632C1042.37 666.353 1044.9 713.793 1073.65 713.793C1102.4 713.793 1085.63 763.516 1073.65 788.378C1123.57 762.502 1134.39 704.026 1133.55 678.022L1167 742.714C1160.34 761.36 1130.06 803.067 1062.17 820.724Z" fill="url(#paint5_linear_346_2514)"/>
<defs>
<linearGradient id="paint0_linear_346_2514" x1="720" y1="0" x2="720" y2="960" gradientUnits="userSpaceOnUse">
<stop stop-color="#B4ECF0"/>
<stop offset="1" stop-color="#AFC6C8"/>
</linearGradient>
<linearGradient id="paint1_linear_346_2514" x1="1323.19" y1="522" x2="1323.19" y2="959.54" gradientUnits="userSpaceOnUse">
<stop stop-color="white" stop-opacity="0.62"/>
<stop offset="1" stop-color="#C6E1E3" stop-opacity="0.81"/>
</linearGradient>
<linearGradient id="paint2_linear_346_2514" x1="766" y1="575" x2="766" y2="960" gradientUnits="userSpaceOnUse">
<stop stop-color="white" stop-opacity="0.62"/>
<stop offset="1" stop-color="#97C5C8" stop-opacity="0.81"/>
</linearGradient>
<linearGradient id="paint3_linear_346_2514" x1="106" y1="602" x2="106" y2="960" gradientUnits="userSpaceOnUse">
<stop stop-color="white" stop-opacity="0.62"/>
<stop offset="1" stop-color="#97C5C8" stop-opacity="0.81"/>
</linearGradient>
<linearGradient id="paint4_linear_346_2514" x1="617" y1="628" x2="617" y2="960" gradientUnits="userSpaceOnUse">
<stop stop-color="white" stop-opacity="0.62"/>
<stop offset="1" stop-color="#97C5C8" stop-opacity="0.81"/>
</linearGradient>
<linearGradient id="paint5_linear_346_2514" x1="1050" y1="627" x2="1050" y2="960" gradientUnits="userSpaceOnUse">
<stop stop-color="white" stop-opacity="0.62"/>
<stop offset="1" stop-color="#97C5C8" stop-opacity="0.81"/>
</linearGradient>
</defs>
</svg>
