<svg width="392" height="223" viewBox="0 0 392 223" fill="none" xmlns="http://www.w3.org/2000/svg">
<path d="M303.294 101.91C295.699 108.84 272.863 107.022 262.395 105.247L245.752 111.346L261.43 120.277C295.626 134.932 317.952 125.671 324.841 119.21L339.239 122.385C358.957 109.998 359.141 102.563 360.803 96.9774C362.21 92.2498 364.51 86.0242 364.494 82.4966C369.199 52.0086 339.944 36.6827 322.415 31.8903C340.73 43.1274 334.285 72.9936 327.734 85.6787C332.549 71.5358 322.248 54.4106 316.496 47.6158C319.661 53.4395 316.341 60.9288 314.284 63.9454C302.859 81.1574 302.197 96.4265 303.294 101.91Z" fill="url(#paint0_linear_344_2508)"/>
<path d="M86.7955 106.754C95.472 112.555 116.842 107.763 126.443 104.642L143.564 108.435L130.492 119.264C100.975 138.149 77.7832 132.003 69.8768 126.569L56.8254 131.582C35.4658 122.022 33.743 114.751 30.9969 109.489C28.6725 105.035 25.1854 99.2284 24.4666 95.7646C13.6366 66.4663 38.308 47.5737 54.0049 40.5623C38.9017 54.0015 51.2586 82.4605 60.1389 94.0458C52.6082 80.8014 58.853 62.6396 62.9168 55.2143C61.1146 61.3459 65.8369 68.2578 68.4232 70.9473C82.8889 86.3328 86.6988 101.229 86.7955 106.754Z" fill="url(#paint1_linear_344_2508)"/>
<path d="M71.1863 149.14C85.6589 149.135 100.032 139.3 105.41 134.384C110.64 139.548 119.759 149.624 114.39 148.615C109.021 147.605 92.3659 155.184 84.7092 159.099C76.2061 158.669 83.1573 186.212 87.6958 200.038C66.466 189.677 67.8437 161.789 71.1863 149.14Z" fill="url(#paint2_linear_344_2508)"/>
<path d="M317.677 131.157C303.357 133.252 287.708 125.608 281.674 121.524C277.249 127.393 269.689 138.686 274.854 136.908C280.02 135.13 297.599 140.211 305.743 142.973C314.093 141.313 311.213 169.574 308.729 183.912C328.231 170.58 322.82 143.187 317.677 131.157Z" fill="url(#paint3_linear_344_2508)"/>
<path d="M293.078 154.406C284.227 152.677 273.212 140.876 270.694 136.775C259.573 137.586 256.616 149.443 260.058 149.372C263.5 149.302 275.91 158.698 279.98 162.367C285.248 163.078 277.116 185.271 272.173 194.46C286.781 189.7 293.14 163.707 293.078 154.406Z" fill="url(#paint4_linear_344_2508)"/>
<path d="M268.194 162.866C259.986 161.227 249.653 150.641 247.273 146.978C236.997 147.562 234.409 158.028 237.591 158.008C240.774 157.987 252.369 166.46 256.178 169.759C261.059 170.453 253.812 190.012 249.354 198.092C262.807 194.053 268.366 171.106 268.194 162.866Z" fill="url(#paint5_linear_344_2508)"/>
<path d="M122.158 177.024C130.041 174.21 138.728 162.237 140.551 158.267C150.803 157.353 157.565 164.518 154.413 164.96C151.261 165.402 138.337 178.283 135.047 182.099C130.318 183.494 140.327 201.794 145.911 209.141C132.014 207.097 123.183 185.201 122.158 177.024Z" fill="url(#paint6_linear_344_2508)"/>
<path d="M95.6393 168.765C104.146 165.769 113.331 152.495 115.227 148.072C126.348 147.26 130.995 158.562 127.579 158.992C124.163 159.423 113.248 170.521 109.754 174.741C104.645 176.209 115.912 196.987 122.136 205.361C106.991 202.772 96.9281 177.977 95.6393 168.765Z" fill="url(#paint7_linear_344_2508)"/>
<path d="M109.21 107.836C190.057 35.3874 254.966 69.4731 277.314 95.5721C288.351 117.826 286.56 163.025 191.098 165.786C95.6364 168.547 96.7305 128.303 109.21 107.836Z" fill="url(#paint8_linear_344_2508)"/>
<path d="M192.253 61.4976C193.286 75.6503 182.56 87.9735 168.287 89.0148C154.014 90.056 141.613 79.4201 140.581 65.2674C139.548 51.1147 150.274 38.7915 164.547 37.7503C178.82 36.709 191.221 47.345 192.253 61.4976Z" fill="#F5F5F5" stroke="#CACACA"/>
<path d="M178.673 56.7963C179.021 61.5683 175.404 65.728 170.586 66.0795C165.767 66.4311 161.584 62.8405 161.236 58.0684C160.888 53.2964 164.505 49.1368 169.324 48.7852C174.143 48.4337 178.325 52.0243 178.673 56.7963Z" fill="#3D3D3D" stroke="#626262"/>
<path d="M244.923 57.6553C245.956 71.808 235.23 84.1312 220.957 85.1725C206.684 86.2137 194.283 75.5778 193.251 61.4251C192.218 47.2725 202.944 34.9492 217.217 33.908C231.489 32.8667 243.891 43.5027 244.923 57.6553Z" fill="#F5F5F5" stroke="#CACACA"/>
<path d="M224.212 53.474C224.56 58.2461 220.943 62.4057 216.125 62.7572C211.306 63.1088 207.123 59.5182 206.775 54.7462C206.427 49.9741 210.044 45.8145 214.863 45.4629C219.682 45.1114 223.864 48.702 224.212 53.474Z" fill="#3D3D3D" stroke="#626262"/>
<path d="M138.726 131.986C167.213 131.986 204.698 105.126 245.22 121.626" stroke="#292929" stroke-width="3"/>
<path d="M214.38 22.7181C220.328 29.0831 234.117 38.6933 241.689 26.2139C238.784 27.3198 229.255 28.1688 214.38 22.7181Z" fill="#292929" stroke="#292929" stroke-width="3"/>
<path d="M159.066 28.0101C154.784 35.6086 140.665 49.1639 130.394 38.7987C133.472 39.1908 145.907 36.8224 159.066 28.0101Z" fill="#292929" stroke="#292929" stroke-width="3"/>
<defs>
<linearGradient id="paint0_linear_344_2508" x1="339.871" y1="39.338" x2="285.843" y2="134.183" gradientUnits="userSpaceOnUse">
<stop stop-color="#FFDCC4"/>
<stop offset="1" stop-color="#E04524"/>
</linearGradient>
<linearGradient id="paint1_linear_344_2508" x1="38.9302" y1="50.1699" x2="110.136" y2="136.126" gradientUnits="userSpaceOnUse">
<stop stop-color="#FFDCC4"/>
<stop offset="1" stop-color="#E04524"/>
</linearGradient>
<linearGradient id="paint2_linear_344_2508" x1="91.0359" y1="135.432" x2="95.7065" y2="199.453" gradientUnits="userSpaceOnUse">
<stop stop-color="#FFC194"/>
<stop offset="1" stop-color="#DE3F23"/>
</linearGradient>
<linearGradient id="paint3_linear_344_2508" x1="296.048" y1="120.475" x2="300.719" y2="184.496" gradientUnits="userSpaceOnUse">
<stop stop-color="#FFC194"/>
<stop offset="1" stop-color="#DE3F23"/>
</linearGradient>
<linearGradient id="paint4_linear_344_2508" x1="282.7" y1="144.68" x2="270.033" y2="189.244" gradientUnits="userSpaceOnUse">
<stop stop-color="#F0A36A"/>
<stop offset="1" stop-color="#DE3F23"/>
</linearGradient>
<linearGradient id="paint5_linear_344_2508" x1="258.475" y1="154.125" x2="247.3" y2="193.443" gradientUnits="userSpaceOnUse">
<stop stop-color="#F0A36A"/>
<stop offset="1" stop-color="#DE3F23"/>
</linearGradient>
<linearGradient id="paint6_linear_344_2508" x1="130.505" y1="166.965" x2="147.268" y2="204.244" gradientUnits="userSpaceOnUse">
<stop stop-color="#EDB78E"/>
<stop offset="1" stop-color="#DE3F23"/>
</linearGradient>
<linearGradient id="paint7_linear_344_2508" x1="104.495" y1="157.636" x2="123.496" y2="199.89" gradientUnits="userSpaceOnUse">
<stop stop-color="#F0A36A"/>
<stop offset="1" stop-color="#DE3F23"/>
</linearGradient>
<linearGradient id="paint8_linear_344_2508" x1="188.526" y1="65.3036" x2="195.852" y2="165.714" gradientUnits="userSpaceOnUse">
<stop stop-color="#F25F4B"/>
<stop offset="1" stop-color="#E7B59A"/>
</linearGradient>
</defs>
</svg>
