<svg width="324" height="220" viewBox="0 0 324 220" fill="none" xmlns="http://www.w3.org/2000/svg">
<path d="M271.287 76.3069C268.839 86.293 248.859 97.4997 239.175 101.855L228.748 116.189L246.744 114.876C283.307 108.005 296.694 87.8805 298.818 78.6771L312.545 73.2969C322.025 52.0267 318.037 45.7492 316.307 40.1845C314.843 35.4742 313.286 29.0223 311.308 26.1016C298.238 -1.84196 265.404 1.72026 248.176 7.50144C269.646 6.63563 280.925 35.0312 282.548 49.2153C278.672 34.7869 260.579 26.2994 252.017 23.8592C257.889 26.9335 259.302 35.0033 259.274 38.654C259.369 59.3128 267.322 72.3637 271.287 76.3069Z" fill="url(#paint0_linear_128_2386)"/>
<path d="M54.2879 91.955C58.1598 101.48 79.5548 109.668 89.7683 112.572L102.165 125.24L84.1696 126.553C46.9958 125.062 30.8295 107.094 27.3931 98.2958L13.03 94.965C0.563829 75.2958 3.59848 68.5061 4.50223 62.7491C5.2672 57.8763 5.87078 51.2668 7.404 48.0899C16.2798 18.5453 49.283 17.3043 67.1679 20.5238C45.7997 22.7833 38.7614 52.5152 39.2141 66.7847C40.9556 51.9464 57.6249 40.9229 65.7418 37.2658C60.3779 41.1598 60.1517 49.3492 60.7091 52.9572C63.6133 73.411 57.6384 87.4782 54.2879 91.955Z" fill="url(#paint1_linear_128_2386)"/>
<path d="M35.4334 157.874C49.906 157.869 64.2793 148.034 69.6568 143.118C74.8872 148.282 84.0058 158.358 78.6372 157.349C73.2685 156.339 56.6129 163.918 48.9562 167.833C40.4532 167.403 47.4044 194.946 51.9429 208.771C30.7131 198.411 32.0908 170.523 35.4334 157.874Z" fill="url(#paint2_linear_128_2386)"/>
<path d="M282.018 139.884C267.698 141.98 252.049 134.336 246.015 130.252C241.59 136.12 234.03 147.413 239.195 145.635C244.361 143.858 261.94 148.938 270.084 151.701C278.434 150.041 275.554 178.301 273.07 192.639C292.572 179.307 287.161 151.914 282.018 139.884Z" fill="url(#paint3_linear_128_2386)"/>
<path d="M257.326 163.14C248.475 161.411 237.46 149.61 234.942 145.509C223.821 146.32 220.864 158.177 224.306 158.107C227.748 158.037 240.158 167.433 244.228 171.102C249.496 171.813 241.364 194.005 236.421 203.194C251.029 198.435 257.388 172.441 257.326 163.14Z" fill="url(#paint4_linear_128_2386)"/>
<path d="M232.442 171.601C224.234 169.962 213.901 159.376 211.521 155.712C201.245 156.296 198.657 166.762 201.839 166.742C205.022 166.721 216.617 175.195 220.426 178.494C225.307 179.187 218.06 198.746 213.602 206.826C227.055 202.787 232.614 179.84 232.442 171.601Z" fill="url(#paint5_linear_128_2386)"/>
<path d="M86.4048 185.758C94.2879 182.945 102.975 170.971 104.798 167.001C115.05 166.087 121.812 173.253 118.66 173.694C115.508 174.136 102.584 187.017 99.2942 190.834C94.5651 192.229 104.574 210.529 110.158 217.876C96.2614 215.832 87.4303 193.935 86.4048 185.758Z" fill="url(#paint6_linear_128_2386)"/>
<path d="M59.8864 177.5C68.3928 174.504 77.5778 161.23 79.4744 156.806C90.5956 155.995 95.2416 167.297 91.826 167.727C88.4104 168.157 77.4952 179.255 74.0013 183.475C68.892 184.944 80.1592 205.721 86.3834 214.095C71.2386 211.506 61.1751 186.711 59.8864 177.5Z" fill="url(#paint7_linear_128_2386)"/>
<path d="M73.4573 116.571C154.304 44.1222 219.213 78.208 241.561 104.307C252.598 126.561 250.807 171.76 155.345 174.521C59.8835 177.282 60.9776 137.038 73.4573 116.571Z" fill="url(#paint8_linear_128_2386)"/>
<path d="M156.501 70.232C157.534 84.3846 146.808 96.7079 132.535 97.7491C118.262 98.7904 105.861 88.1544 104.829 74.0018C103.796 59.8491 114.522 47.5259 128.795 46.4846C143.068 45.4434 155.469 56.0793 156.501 70.232Z" fill="#F5F5F5" stroke="#CACACA"/>
<path d="M142.92 65.5307C143.268 70.3027 139.651 74.4623 134.833 74.8139C130.014 75.1654 125.831 71.5748 125.483 66.8028C125.135 62.0308 128.752 57.8711 133.571 57.5196C138.39 57.168 142.572 60.7586 142.92 65.5307Z" fill="#3D3D3D" stroke="#626262"/>
<path d="M209.17 66.3892C210.203 80.5419 199.477 92.8651 185.204 93.9064C170.931 94.9476 158.53 84.3116 157.498 70.159C156.465 56.0063 167.191 43.6831 181.464 42.6419C195.737 41.6006 208.138 52.2366 209.17 66.3892Z" fill="#F5F5F5" stroke="#CACACA"/>
<path d="M188.555 62.2016C188.903 66.9736 185.286 71.1332 180.467 71.4848C175.649 71.8363 171.466 68.2457 171.118 63.4737C170.77 58.7017 174.387 54.542 179.206 54.1905C184.024 53.8389 188.207 57.4295 188.555 62.2016Z" fill="#3D3D3D" stroke="#626262"/>
<path d="M100.497 130.36C124.763 150.482 180.681 177.051 210.226 122.355" stroke="#292929" stroke-width="3"/>
<path d="M178.232 34.8093C185.7 30.324 201.599 24.8733 205.451 38.9532C202.961 37.0916 194.033 33.6565 178.232 34.8093Z" fill="#292929" stroke="#292929" stroke-width="3"/>
<path d="M123.659 37.4359C115.058 35.9887 95.64 38.4482 97.2447 52.9517C98.8746 50.3115 108.533 42.1297 123.659 37.4359Z" fill="#292929" stroke="#292929" stroke-width="3"/>
<defs>
<linearGradient id="paint0_linear_128_2386" x1="266.823" y1="3.96629" x2="274.765" y2="112.831" gradientUnits="userSpaceOnUse">
<stop stop-color="#E06A15"/>
<stop offset="1" stop-color="#E04524"/>
</linearGradient>
<linearGradient id="paint1_linear_128_2386" x1="48.2057" y1="19.7324" x2="56.148" y2="128.597" gradientUnits="userSpaceOnUse">
<stop stop-color="#E06A15"/>
<stop offset="1" stop-color="#E04524"/>
</linearGradient>
<linearGradient id="paint2_linear_128_2386" x1="55.2829" y1="144.166" x2="59.9536" y2="208.187" gradientUnits="userSpaceOnUse">
<stop stop-color="#F9852F"/>
<stop offset="1" stop-color="#DE3F23"/>
</linearGradient>
<linearGradient id="paint3_linear_128_2386" x1="260.389" y1="129.203" x2="265.06" y2="193.224" gradientUnits="userSpaceOnUse">
<stop stop-color="#F9852F"/>
<stop offset="1" stop-color="#DE3F23"/>
</linearGradient>
<linearGradient id="paint4_linear_128_2386" x1="246.948" y1="153.414" x2="234.281" y2="197.979" gradientUnits="userSpaceOnUse">
<stop stop-color="#F9852F"/>
<stop offset="1" stop-color="#DE3F23"/>
</linearGradient>
<linearGradient id="paint5_linear_128_2386" x1="222.724" y1="162.86" x2="211.548" y2="202.177" gradientUnits="userSpaceOnUse">
<stop stop-color="#F9852F"/>
<stop offset="1" stop-color="#DE3F23"/>
</linearGradient>
<linearGradient id="paint6_linear_128_2386" x1="94.7517" y1="175.699" x2="111.515" y2="212.978" gradientUnits="userSpaceOnUse">
<stop stop-color="#F9852F"/>
<stop offset="1" stop-color="#DE3F23"/>
</linearGradient>
<linearGradient id="paint7_linear_128_2386" x1="68.7424" y1="166.37" x2="87.7431" y2="208.624" gradientUnits="userSpaceOnUse">
<stop stop-color="#F9852F"/>
<stop offset="1" stop-color="#DE3F23"/>
</linearGradient>
<linearGradient id="paint8_linear_128_2386" x1="152.773" y1="74.0385" x2="160.099" y2="174.449" gradientUnits="userSpaceOnUse">
<stop stop-color="#FF9432"/>
<stop offset="1" stop-color="#DB3721"/>
</linearGradient>
</defs>
</svg>
