<svg width="122" height="80" viewBox="0 0 122 80" fill="none" xmlns="http://www.w3.org/2000/svg">
<path d="M61.0072 66.8252C65.1335 61.4193 73.2374 59.7339 76.7735 59.5669C79.2991 59.5007 85.2074 62.9505 78.0684 69.2248C71.2023 75.2594 67.0132 77.2122 64.1851 76.3424C60.9532 75.2157 56.8809 72.231 61.0072 66.8252Z" fill="#323232"/>
<path d="M36.4786 41.6778C40.747 35.1917 45.7601 39.8515 49.8317 39.9274C52.7448 40.0485 57.5652 42.7561 53.5421 52.6179C49.519 62.4796 41.8146 62.2919 38.4653 60.9654C34.6254 59.282 32.2101 48.1639 36.4786 41.6778Z" fill="#323232"/>
<path d="M6.27252 20.6333C9.35696 6.54224 15.7275 6.5 19.7298 10.5006C19.7298 18.5006 8.15882 22.3961 24.7298 27.0006C42.3988 31.9101 19.3225 47.4369 14.7343 48.0023C6.273 51.5019 3.18808 34.7244 6.27252 20.6333Z" fill="#323232"/>
<path d="M32.3556 24.0721C85.7271 -3.00034 111.951 18.6961 118.778 34.6562C122.375 37.0757 121.942 39.0241 121.275 39.6958C123.273 42.115 118.111 46.0798 115.281 47.7598C75.8162 89.0881 43.3532 48.4329 37.7271 44.4997C33.112 41.2732 21.2691 45.4847 14.9051 47.7478L14.8713 47.7598C-2.27246 38.5 16.8695 -1.12844 21.865 12.9836C25.8614 24.2733 28.7271 24 32.3556 24.0721Z" fill="url(#paint0_linear_429_4272)" stroke="url(#paint1_linear_429_4272)" stroke-width="0.5"/>
<path d="M106.727 36.5268C103.527 36.5268 103.394 32.1935 103.727 30.0268C104.927 28.8268 106.227 29.5268 106.727 30.0268C108.06 32.1935 109.927 36.5268 106.727 36.5268Z" fill="black" stroke="black"/>
<g filter="url(#filter0_b_429_4272)">
<path d="M105.005 33.5264C103.697 33.5264 103.642 31.7114 103.778 30.8039C104.269 30.3013 104.801 30.5945 105.005 30.8039C105.55 31.7114 106.314 33.5264 105.005 33.5264Z" fill="#F9F9F9"/>
<path d="M105.005 33.5264C103.697 33.5264 103.642 31.7114 103.778 30.8039C104.269 30.3013 104.801 30.5945 105.005 30.8039C105.55 31.7114 106.314 33.5264 105.005 33.5264Z" stroke="white"/>
</g>
<path d="M64.5689 75.4989C70.3845 78.6715 85 66.2931 85 65.5C76.7612 66.6688 69.9763 64.3757 67.5531 64L64.5689 65.5846C62.6303 67.8319 59.9164 72.9609 64.5689 75.4989Z" fill="url(#paint2_linear_429_4272)"/>
<path d="M65.7275 28.0251C60.9275 19.2251 64.7275 13.0263 66.7275 11.5263C65.7275 10.0263 52.2275 14.0251 49.7275 15.5251C47.2275 17.0251 49.2275 32.0251 52.2275 36.5251C54.6275 40.1251 49.8942 49.6917 47.2275 54.0251C50.0275 57.6251 59.5609 61.5 63.7275 63C68.2275 61.5 71.7275 39.0251 65.7275 28.0251Z" fill="white"/>
<path d="M25.1386 44.6073C24.3345 43.3768 24.873 28.0475 25.3758 21.0232C25.3764 21.0143 25.3878 21.0118 25.3936 21.0185C29.414 25.6147 33.1987 24.0751 38.7275 21C34.7012 27.569 35.3729 39.3313 37.2183 44.1211C29.1647 42.5545 26.1448 46.1469 25.1386 44.6073Z" fill="white" stroke="white"/>
<path d="M80.227 38.0264C77.4336 33.6367 88.1767 19.2347 93.6886 13.0437C93.7133 13.0159 93.7495 13.0055 93.7856 13.0146C99.6801 14.508 106.997 19.35 109.604 21.8787C109.66 21.9329 109.632 22.0276 109.559 22.055C108.512 22.4489 104.352 24.6518 98.7271 29.5264C92.7271 34.7264 94.8938 39.693 96.7271 41.5264L109.641 52.9239C109.687 52.9641 109.686 53.0353 109.64 53.0748L106.228 56L101.79 58.9839C101.753 59.009 101.705 59.0078 101.671 58.9785C95.8121 53.9527 83.0181 42.4124 80.227 38.0264Z" fill="white"/>
<path d="M72.6602 3.1074C86.2602 -5.6926 93.6597 6.24676 95.6597 13.5801C74.7305 6.60706 50.3943 14.8336 39.7275 20.5C38.3942 14.6668 37.0603 3.80733 48.6603 6.60706C60.2603 9.40678 69.4936 5.44051 72.6602 3.1074Z" fill="url(#paint3_linear_429_4272)"/>
<path d="M37.7275 44C34.2275 51 33.335 68.1 53.735 58.5C47.2343 53.4736 47.7275 51.5 37.7275 44Z" fill="url(#paint4_linear_429_4272)"/>
<path d="M64.515 30.0136C71.6506 29.6606 77.0803 36.2641 79.2275 39.5C80.7141 41.8533 81.9574 46.9577 72.4433 49.4288C62.9292 51.8998 58.899 45.7516 58.0732 42.3686C57.2473 38.3974 57.3794 30.3666 64.515 30.0136Z" fill="#323232"/>
<path d="M61.7458 37.0174C61.3371 31.8474 67.876 30.8511 71.4521 31.0168C77.0717 33.5021 85.7569 43.679 79.6264 46.4629C73.4959 49.2467 68.2168 47.6228 66.3436 46.4629C64.9813 45.4686 62.1545 42.1874 61.7458 37.0174Z" fill="url(#paint5_linear_429_4272)"/>
<defs>
<filter id="filter0_b_429_4272" x="99.2275" y="26.0264" width="11" height="12" filterUnits="userSpaceOnUse" color-interpolation-filters="sRGB">
<feFlood flood-opacity="0" result="BackgroundImageFix"/>
<feGaussianBlur in="BackgroundImageFix" stdDeviation="2"/>
<feComposite in2="SourceAlpha" operator="in" result="effect1_backgroundBlur_429_4272"/>
<feBlend mode="normal" in="SourceGraphic" in2="effect1_backgroundBlur_429_4272" result="shape"/>
</filter>
<linearGradient id="paint0_linear_429_4272" x1="64.7275" y1="10" x2="64.7275" y2="66" gradientUnits="userSpaceOnUse">
<stop stop-color="#FFC42B"/>
<stop offset="1" stop-color="#FF7B01"/>
</linearGradient>
<linearGradient id="paint1_linear_429_4272" x1="64.7275" y1="10" x2="64.7275" y2="66" gradientUnits="userSpaceOnUse">
<stop stop-color="#FFC229"/>
<stop offset="1" stop-color="#FF8306" stop-opacity="0"/>
</linearGradient>
<linearGradient id="paint2_linear_429_4272" x1="73.9465" y1="63.2069" x2="67.5899" y2="75.0899" gradientUnits="userSpaceOnUse">
<stop stop-color="#E36D00"/>
<stop offset="1" stop-color="#FFC42B"/>
</linearGradient>
<linearGradient id="paint3_linear_429_4272" x1="66.6305" y1="0.0800781" x2="66.6305" y2="20.6064" gradientUnits="userSpaceOnUse">
<stop stop-color="#FFC42B"/>
<stop offset="1" stop-color="#FF7B01"/>
</linearGradient>
<linearGradient id="paint4_linear_429_4272" x1="45.4507" y1="45.5264" x2="45.4507" y2="62.1581" gradientUnits="userSpaceOnUse">
<stop offset="0.244792" stop-color="#FF7B01"/>
<stop offset="1" stop-color="#FFC42B"/>
</linearGradient>
<linearGradient id="paint5_linear_429_4272" x1="81.2275" y1="43" x2="63.7275" y2="41.5" gradientUnits="userSpaceOnUse">
<stop stop-color="#FF9913"/>
<stop offset="1" stop-color="#FFB523" stop-opacity="0.92"/>
</linearGradient>
</defs>
</svg>
