<svg width="67" height="136" viewBox="0 0 67 136" fill="none" xmlns="http://www.w3.org/2000/svg">
<path d="M28.6699 5.5C29.4699 9.1 28.3366 12 27.6699 13C47.1699 -2 48.6699 127 41.6699 133.5C39.8379 135.201 45.1699 134.5 46.1699 135.5C48.5699 133.1 51.8366 133.167 53.1699 133.5C53.9699 129.5 58.5033 128.167 60.6699 128C58.6699 123.6 62.5033 118.5 64.6699 116.5C61.8699 113.3 63.1699 106.833 64.1699 104C61.3699 101.6 61.3366 95.3333 61.6699 92.5C57.2699 88.1 58.8366 77.6667 60.1699 73C52.5699 67.4 58.6699 56.6667 62.6699 52C59.8699 44.8 63.8366 39 66.1699 37C59.3699 31.4 63.3366 23.3333 66.1699 20C58.1699 16 57.1699 7.66667 57.6699 4C47.6699 7.6 41.8366 2.83333 40.1699 0C37.7699 5.6 31.5033 6 28.6699 5.5Z" fill="#D04A39"/>
<path d="M22.1691 19.5C16.1691 30.7 6.33576 29.1667 2.1691 27C-0.230902 28.6 -0.164236 32.3333 0.169098 34C0.835764 36.8333 3.5691 41.9 9.1691 39.5C14.7691 37.1 16.8358 37.5 17.1691 38C17.8358 37.8333 20.4691 38.4 25.6691 42C30.8691 45.6 39.1691 45.5 42.6691 45C40.8358 47.5 36.7691 53.3 35.1691 56.5C33.5691 59.7 31.8358 66.1667 31.1691 69C31.0024 70.5 30.6691 74.7 30.6691 79.5C30.6691 84.3 32.6691 90.5 33.6691 93L36.6691 98.5L41.1691 107C42.6691 109.833 45.2691 116.3 43.6691 119.5C41.6691 123.5 40.1691 123.5 37.1691 123.5C34.1691 123.5 33.6691 121.5 33.1691 120.5C32.7691 119.7 33.3358 118.167 33.6691 117.5C33.8358 117.167 33.7691 116.5 32.1691 116.5C30.5691 116.5 29.5024 117.833 29.1691 118.5C27.1691 123 26.3691 132.3 39.1691 133.5C50.6691 133 56.5024 126.333 57.6691 123.5C59.5024 118.333 61.4691 104.8 54.6691 92C46.1691 76 57.1691 45 57.6691 31C58.0691 19.8 49.5024 13.6667 45.1691 12C40.0024 9.83335 28.1691 8.30001 22.1691 19.5Z" fill="url(#paint0_radial_449_4264)"/>
<path d="M6.17076 37.0001C8.17076 31.0001 5.33743 29.5001 3.67076 29.5001C2.67076 29.3295 2.17076 31.0001 2.67076 34.5001C3.07076 37.3001 5.17076 37.3335 6.17076 37.0001Z" fill="#FF9800"/>
<path d="M18.1697 76.4997C18.5697 60.8997 31.3363 49.3331 37.6697 45.4997C38.9001 44.6997 42.6825 44.1667 43.6699 44.5C27.6699 66 30.3194 87.403 34.1699 93.4997C40.1558 102.978 42.3262 109.635 44.1567 115.459C44.1611 115.472 44.1655 115.486 44.1697 115.5C44.1654 115.486 44.161 115.472 44.1567 115.459C42.0667 108.945 17.6707 95.9587 18.1697 76.4997Z" fill="url(#paint1_linear_449_4264)"/>
<path d="M41.1699 23.4998C39.5699 18.6998 35.1699 19.4998 33.1699 20.4998C31.3365 22.3332 28.4699 26.9 31.6699 30.5C34.8699 34.1 38.3365 32.6667 39.6699 31.5C40.8365 30.8333 42.7699 28.2998 41.1699 23.4998Z" fill="#D9D9D9"/>
<path d="M33.1699 26.9998C33.1699 33.3998 37.1699 32.9998 39.1699 31.9998C42.3699 29.9996 41.8366 25.4997 41.1699 23.4998C38.5033 21.9998 33.1699 20.5998 33.1699 26.9998Z" fill="#202020"/>
<path d="M35.6699 27.6885C35.6699 32.6401 38.4916 32.3307 39.9024 31.557C42.1597 30.0094 41.7835 26.5279 41.3132 24.9805C39.4321 23.82 35.6699 22.7368 35.6699 27.6885Z" fill="#4B4B4B"/>
<circle cx="36.1699" cy="25.5" r="1.5" fill="white"/>
<defs>
<radialGradient id="paint0_radial_449_4264" cx="0" cy="0" r="1" gradientUnits="userSpaceOnUse" gradientTransform="translate(41.1699 50.5) rotate(97.8617) scale(83.7875 40.4652)">
<stop stop-color="#FFA805"/>
<stop offset="1" stop-color="#FF6915"/>
</radialGradient>
<linearGradient id="paint1_linear_449_4264" x1="31.1659" y1="45.0581" x2="31.1659" y2="115.5" gradientUnits="userSpaceOnUse">
<stop stop-color="#FFC90B"/>
<stop offset="1" stop-color="#F9E473"/>
</linearGradient>
</defs>
</svg>
