<svg width="725" height="288" viewBox="0 0 725 288" fill="none" xmlns="http://www.w3.org/2000/svg">
<path fill-rule="evenodd" clip-rule="evenodd" d="M32 2C15.4315 2 2 15.4315 2 32V187C2 203.569 15.4315 217 32 217H157.09C170.191 232.609 165.632 257.103 148.545 275.001C144.977 278.738 147.613 286.356 152.76 285.919C237.378 278.737 261.612 242.02 263.828 217H693C709.569 217 723 203.569 723 187V32C723 15.4315 709.569 2 693 2H32Z" fill="#9FE3E9"/>
<path d="M157.09 217L158.239 216.036L157.79 215.5H157.09V217ZM148.545 275.001L147.46 273.965L148.545 275.001ZM152.76 285.919L152.634 284.424H152.634L152.76 285.919ZM263.828 217V215.5H262.454L262.333 216.868L263.828 217ZM3.5 32C3.5 16.2599 16.2599 3.5 32 3.5V0.5C14.603 0.5 0.5 14.603 0.5 32H3.5ZM3.5 187V32H0.5V187H3.5ZM32 215.5C16.2599 215.5 3.5 202.74 3.5 187H0.5C0.5 204.397 14.603 218.5 32 218.5V215.5ZM157.09 215.5H32V218.5H157.09V215.5ZM155.941 217.964C168.35 232.748 164.267 256.36 147.46 273.965L149.63 276.037C166.996 257.846 172.033 232.47 158.239 216.036L155.941 217.964ZM147.46 273.965C145.182 276.351 144.977 279.839 145.977 282.545C146.98 285.259 149.419 287.708 152.887 287.414L152.634 284.424C150.954 284.567 149.501 283.426 148.791 281.505C148.079 279.578 148.34 277.388 149.63 276.037L147.46 273.965ZM152.887 287.414C195.385 283.807 222.907 272.769 240.118 259.331C257.347 245.88 264.176 230.07 265.322 217.132L262.333 216.868C261.263 228.95 254.868 244.009 238.271 256.967C221.657 269.938 194.753 280.85 152.634 284.424L152.887 287.414ZM693 215.5H263.828V218.5H693V215.5ZM721.5 187C721.5 202.74 708.74 215.5 693 215.5V218.5C710.397 218.5 724.5 204.397 724.5 187H721.5ZM721.5 32V187H724.5V32H721.5ZM693 3.5C708.74 3.5 721.5 16.2599 721.5 32H724.5C724.5 14.603 710.397 0.5 693 0.5V3.5ZM32 3.5H693V0.5H32V3.5Z" fill="#41C2CB"/>
</svg>
