<svg width="311" height="240" viewBox="0 0 311 240" fill="none" xmlns="http://www.w3.org/2000/svg">
<path d="M29.3108 97.7514C23.5085 74.4783 39.4646 63.3707 48.168 60.7261L74.2784 79.2387C73.5531 79.8999 71.0872 81.3545 67.0257 81.8834C62.9641 82.4123 62.9157 85.1892 63.3993 86.5116C65.0916 88.2747 70.0718 91.8009 76.4543 91.8009C82.8367 91.8009 86.8499 102.38 88.0587 107.669C90.718 111.856 96.617 124.991 98.9379 144.033C101.839 167.835 96.762 176.43 93.8609 187.67C91.54 196.662 85.1576 192.739 82.2565 189.653C76.4543 187.538 57.1132 160.562 48.168 147.339C44.2998 140.507 35.113 121.024 29.3108 97.7514Z" fill="url(#paint0_linear_450_4308)"/>
<path d="M236.256 204.202C211.907 202.592 197.52 170.447 193.369 154.575L234.181 159.27L238.332 165.305C239.484 166.647 241.237 170 239.023 172.682C236.81 175.365 238.101 176.482 239.023 176.706C242.943 176.929 250.506 180.193 249.399 191.46C248.292 202.726 240.176 204.649 236.256 204.202Z" fill="url(#paint1_linear_450_4308)"/>
<path d="M297.821 205.168C273.456 208.945 249.192 174.012 240.105 156.073C240.105 156.073 271.365 148.842 272.179 158.166C272.993 167.49 287.552 158.343 287.552 158.343C289.106 159.671 291.884 163.256 290.563 166.97C289.243 170.683 290.862 171.713 291.836 171.764C295.747 171.113 304.19 173.233 306.668 186.915C309.147 200.596 301.803 204.785 297.821 205.168Z" fill="url(#paint2_linear_450_4308)"/>
<path d="M27.6601 0C71.1648 1.94668 68.4541 13.3834 73.2041 23.1168L82.7206 45.6253C83.1738 45.6253 85.3037 45.1387 90.198 43.192C96.3158 40.7586 123.506 48.667 156.135 54.1421C188.763 59.6171 254.02 156.951 249.262 158.776C245.455 160.236 234.534 160.196 229.549 159.993C166.331 158.776 109.911 119.843 102.434 117.409C96.4518 115.463 78.642 95.509 70.4849 85.7756C61.6316 83.7949 52.7884 69.8932 47.8496 61.0414C46.9913 61.4648 46.1528 61.8603 45.3337 62.2291C26.6517 70.641 7.93048 56.0354 5.91606 51.7087C2.51724 45.6253 -1.36056 47.7671 0.469672 29.8086C2.51562 9.73341 18.1435 2.43335 27.6601 0Z" fill="url(#paint3_linear_450_4308)"/>
<path d="M65.5532 80.4889C83.1932 78.9038 84.3875 55.6122 82.7797 44.1646L156.508 63.9778C211.863 93.0373 306.999 152.741 244.708 159.081C166.844 167.007 116.542 126.059 103.45 120.776C92.9765 116.549 83.9269 104.045 80.7112 98.3208C78.1851 94.3581 72.306 86.1687 68.9985 85.112C65.691 84.0552 65.3235 81.5896 65.5532 80.4889Z" fill="url(#paint4_radial_450_4308)"/>
<path d="M138.38 15.0974C104.377 23.5501 87.1961 26.5452 78.5605 29.8435C76.4576 30.6467 75.8475 33.1511 77.0545 35.0513L80.5136 40.497C80.9193 41.1356 81.4924 41.6573 82.1209 42.0786C83.1166 42.7461 84.8281 43.994 87.4176 46.0905C91.327 49.2557 92.3044 53.3432 92.3044 62.575V73.9628C92.3044 74.2827 92.355 74.599 92.3642 74.9187C92.4559 78.0777 87.5958 85.1969 90.9082 88.9514C95.7414 94.4297 98.4936 97.4218 108.536 91.255C108.879 91.0442 109.273 90.8723 109.663 90.7697C125.269 86.6582 131.006 86.9738 133.082 87.9363C134.322 88.5109 134.695 90.2557 135.529 91.338C138.706 95.461 146.692 105.969 150.104 111.785C150.203 111.953 150.28 112.116 150.356 112.294C152.681 117.746 163.072 131.087 187.248 143.024C217.965 158.19 201.908 149.618 229.833 155.553C251.747 160.21 269.183 154.673 275.55 151.14C275.794 151.005 276.04 150.895 276.303 150.803C281.749 148.899 291.506 143.204 289.871 134.452C288.333 126.224 274.925 119.957 266.792 117.281C265.515 116.861 264.497 115.89 264.122 114.599C259.637 99.158 252.783 65.1605 241.003 54.6635C228.669 44.3326 173.549 6.35476 138.38 15.0974Z" fill="url(#paint5_radial_450_4308)"/>
<path d="M102.383 139.653C92.8644 116.286 106.124 102.486 113.944 98.5064L120.749 95.3006L128.838 95.3006L137.501 103.242L141.952 114.053C141.376 114.843 139.282 116.704 135.511 117.828C131.741 118.952 132.172 121.845 132.859 123.15C134.771 124.743 140.113 127.704 146.181 126.801C152.249 125.899 157.883 136.325 159.942 141.651C163.191 145.627 171.058 158.444 176.539 177.905C183.39 202.231 180.041 211.882 179.216 223.974C178.555 233.647 171.813 230.472 168.524 227.676C162.644 226.298 139.617 200.998 128.838 188.521C123.986 181.967 111.901 163.019 102.383 139.653Z" fill="url(#paint6_linear_450_4308)"/>
<path d="M35.9414 26.7586C34.3414 21.9586 29.9414 22.7586 27.9414 23.7586C26.108 25.592 23.2414 30.1588 26.4414 33.7588C29.6414 37.3588 33.108 35.9255 34.4414 34.7588C35.608 34.0921 37.5414 31.5586 35.9414 26.7586Z" fill="#FDFDFD"/>
<path d="M27.9414 30.2586C27.9414 36.6586 31.9414 36.2586 33.9414 35.2586C37.1414 33.2584 36.6081 28.7585 35.9414 26.7586C33.2747 25.2586 27.9414 23.8586 27.9414 30.2586Z" fill="#202020"/>
<path d="M30.4414 30.9473C30.4414 35.8989 33.263 35.5894 34.6739 34.8158C36.9312 33.2682 36.5549 29.7867 36.0847 28.2393C34.2036 27.0788 30.4414 25.9956 30.4414 30.9473Z" fill="#4B4B4B"/>
<circle cx="30.9414" cy="28.7588" r="1.5" fill="white"/>
<defs>
<linearGradient id="paint0_linear_450_4308" x1="63.9372" y1="60.7261" x2="63.9372" y2="193.219" gradientUnits="userSpaceOnUse">
<stop stop-color="#8DAD02"/>
<stop offset="1" stop-color="#BEDE34"/>
</linearGradient>
<linearGradient id="paint1_linear_450_4308" x1="221.439" y1="154.575" x2="221.439" y2="204.26" gradientUnits="userSpaceOnUse">
<stop stop-color="#8DAD02"/>
<stop offset="1" stop-color="#ACCC21"/>
</linearGradient>
<linearGradient id="paint2_linear_450_4308" x1="267.608" y1="149.51" x2="281.82" y2="209.061" gradientUnits="userSpaceOnUse">
<stop stop-color="#90B005"/>
<stop offset="1" stop-color="#A8C81D"/>
</linearGradient>
<linearGradient id="paint3_linear_450_4308" x1="83.4088" y1="72.3922" x2="12.0622" y2="-20.6183" gradientUnits="userSpaceOnUse">
<stop stop-color="#8EAE03"/>
<stop offset="1" stop-color="#E3FF68"/>
<stop offset="1" stop-color="#E3FF68"/>
</linearGradient>
<radialGradient id="paint4_radial_450_4308" cx="0" cy="0" r="1" gradientUnits="userSpaceOnUse" gradientTransform="translate(165.302 102.13) rotate(90) scale(57.9657 99.8035)">
<stop stop-color="#D3DEA1"/>
<stop offset="0.833723" stop-color="#AEC259"/>
</radialGradient>
<radialGradient id="paint5_radial_450_4308" cx="0" cy="0" r="1" gradientUnits="userSpaceOnUse" gradientTransform="translate(182.452 85.5688) rotate(90) scale(71.7671 107.601)">
<stop stop-color="#BA5E0B"/>
<stop offset="1" stop-color="#8E4C10"/>
</radialGradient>
<linearGradient id="paint6_linear_450_4308" x1="128.582" y1="94.1355" x2="149.434" y2="234.313" gradientUnits="userSpaceOnUse">
<stop stop-color="#8BAB00"/>
<stop offset="1" stop-color="#C0E035"/>
</linearGradient>
</defs>
</svg>
