<svg width="613" height="291" viewBox="0 0 613 291" fill="none" xmlns="http://www.w3.org/2000/svg">
<path fill-rule="evenodd" clip-rule="evenodd" d="M32 2C15.4315 2 2 15.4314 2 32V187.846C2 204.415 15.4315 217.846 32 217.846H418.451C419.365 242.913 438.9 281.492 511.958 289.001C516.906 289.51 519.615 282.553 516.451 278.715C500.954 259.914 497.19 233.531 510.261 217.846H581C597.569 217.846 611 204.415 611 187.846V32C611 15.4315 597.569 2 581 2H32Z" fill="#9FE3E9"/>
<path d="M418.451 217.846L419.95 217.791L419.897 216.346H418.451V217.846ZM511.958 289.001L512.111 287.509L512.111 287.509L511.958 289.001ZM516.451 278.715L517.609 277.761L517.609 277.761L516.451 278.715ZM510.261 217.846V216.346H509.558L509.108 216.886L510.261 217.846ZM3.5 32C3.5 16.2599 16.2599 3.5 32 3.5V0.5C14.603 0.5 0.5 14.603 0.5 32H3.5ZM3.5 187.846V32H0.5V187.846H3.5ZM32 216.346C16.2599 216.346 3.5 203.586 3.5 187.846H0.5C0.5 205.243 14.603 219.346 32 219.346V216.346ZM418.451 216.346H32V219.346H418.451V216.346ZM512.111 287.509C475.827 283.78 453.025 272.357 439.195 258.932C425.364 245.505 420.394 229.97 419.95 217.791L416.952 217.901C417.422 230.788 422.676 247.077 437.105 261.084C451.536 275.092 475.031 286.714 511.805 290.494L512.111 287.509ZM515.294 279.669C516.449 281.07 516.596 283.153 515.862 284.91C515.134 286.654 513.735 287.676 512.111 287.509L511.805 290.494C515.129 290.835 517.558 288.633 518.631 286.066C519.697 283.513 519.617 280.197 517.609 277.761L515.294 279.669ZM509.108 216.886C495.397 233.34 499.543 260.56 515.294 279.669L517.609 277.761C502.365 259.267 498.984 233.722 511.413 218.806L509.108 216.886ZM581 216.346H510.261V219.346H581V216.346ZM609.5 187.846C609.5 203.586 596.74 216.346 581 216.346V219.346C598.397 219.346 612.5 205.243 612.5 187.846H609.5ZM609.5 32V187.846H612.5V32H609.5ZM581 3.5C596.74 3.5 609.5 16.2599 609.5 32H612.5C612.5 14.603 598.397 0.5 581 0.5V3.5ZM32 3.5H581V0.5H32V3.5Z" fill="#41C2CB"/>
</svg>
