<svg width="1440" height="958" viewBox="0 0 1440 958" fill="none" xmlns="http://www.w3.org/2000/svg">
<path d="M0 0H1440V960H0V0Z" fill="url(#paint0_linear_169_3014)"/>
<path d="M1241 977C1274.83 938.5 1334.5 815 1302.5 629C1284.83 604.167 1254.8 545.4 1276 509C1290.94 493.778 1314.72 461.107 1308.89 435.903C1306.68 430.715 1304.44 426.313 1302.5 423C1305.77 426.951 1307.82 431.303 1308.89 435.903C1316.89 454.73 1324.47 483.913 1316 509C1310.67 533.833 1307.5 592.6 1337.5 629C1349.83 653.167 1370.8 707.9 1356 733.5C1337.5 765.5 1356 826.692 1316 872.5L1276 977H1241Z" fill="#67AFB4" fill-opacity="0.59"/>
<path d="M100 977C133.671 952.921 170.072 883.184 138.225 766.852C120.643 751.321 100 704.934 111.852 677.727C128.529 667.049 156.279 559.921 141.086 535.258C139.961 533.921 138.992 532.821 138.225 532C139.311 532.824 140.262 533.92 141.086 535.258C153.105 549.543 182.885 590.941 173.057 609.242C167.749 624.773 129.856 730.014 159.712 752.78C171.986 767.895 187.786 807.131 173.057 823.142C154.646 843.156 191.468 876.424 151.66 905.074V977H100Z" fill="#67AFB4" fill-opacity="0.59"/>
<path d="M159.381 976.5C125.548 938 88.9714 826.5 120.971 640.5C138.638 615.667 159.381 541.5 147.471 498C130.714 480.926 102.83 309.642 118.096 270.209C119.227 268.071 120.201 266.312 120.971 265C119.88 266.318 118.925 268.069 118.096 270.209C106.02 293.049 76.0959 359.239 85.9714 388.5C91.3047 413.333 129.381 581.6 99.3811 618C87.0477 642.167 71.1714 704.9 85.9714 730.5C104.471 762.5 67.4714 815.692 107.471 861.5V976.5H159.381Z" fill="#67AFB4" fill-opacity="0.59"/>
<path d="M238 977C204.329 952.921 167.928 883.184 199.775 766.852C217.357 751.321 238 704.934 226.147 677.727C209.471 667.049 181.721 559.921 196.914 535.258C198.039 533.921 199.008 532.821 199.775 532C198.689 532.824 197.738 533.92 196.914 535.258C184.895 549.543 155.115 590.941 164.943 609.242C170.25 624.773 208.144 730.014 178.288 752.78C166.014 767.895 150.214 807.131 164.943 823.142C183.354 843.156 146.532 876.424 186.34 905.074V977H238Z" fill="#67AFB4" fill-opacity="0.59"/>
<path d="M1050 889C1050 883.477 1045.52 879 1040 879H866C860.477 879 856 883.477 856 889V948C856 953.523 860.477 958 866 958H1040C1045.52 958 1050 953.523 1050 948V889Z" fill="#62ABAF" fill-opacity="0.52"/>
<path d="M1147 777C1147 771.477 1142.52 767 1137 767H963C957.477 767 953 771.477 953 777V804C953 809.523 957.477 814 963 814H1137C1142.52 814 1147 809.523 1147 804V777Z" fill="#62ABAF" fill-opacity="0.52"/>
<path d="M1206 824C1206 818.477 1201.52 814 1196 814H911C905.477 814 901 818.477 901 824V869C901 874.523 905.477 879 911 879H1196C1201.52 879 1206 874.523 1206 869V824Z" fill="#62ABAF" fill-opacity="0.52"/>
<path d="M1259 889C1259 883.477 1254.52 879 1249 879H866C860.477 879 856 883.477 856 889V948C856 953.523 860.477 958 866 958H1249C1254.52 958 1259 953.523 1259 948V889Z" fill="#62ABAF" fill-opacity="0.52"/>
<path d="M902.003 639.395C892.403 666.595 873.67 655.395 865.503 646.395C858.503 649.895 861.503 662.695 845.503 669.895C829.503 677.095 852.17 685.895 865.503 689.395C872.836 685.895 887.503 682.295 887.503 695.895C887.503 709.495 907.836 697.228 918.003 689.395C920.17 684.228 928.403 674.895 944.003 678.895C959.603 682.895 961.836 668.561 961.003 660.895C960.17 653.728 955.603 639.395 944.003 639.395C932.403 639.395 926.17 632.395 924.503 628.895C921.003 621.061 911.603 612.195 902.003 639.395Z" fill="#62AEB3" fill-opacity="0.49"/>
<path d="M611.156 779.408C572.696 822.295 599.358 911.144 617.496 950.207H629.647C587.806 833.016 615.559 778.784 634.93 770.68C681.948 701.487 662.929 644.139 652.363 615.465C643.382 613.594 641.269 617.542 640.212 624.191L652.363 665.333C654.653 685.489 649.616 736.521 611.156 779.408Z" fill="#67AFB4" fill-opacity="0.59"/>
<path d="M481.922 615C538.149 619.242 617.943 841.434 650.812 952H634.028C553.779 693.358 485.593 638.566 473.005 631.497C462.935 625.841 469.159 618.142 481.922 615Z" fill="#67AFB4" fill-opacity="0.59"/>
<path d="M497.375 692.08C536.178 695.329 591.246 865.519 613.929 950.207H597.633C542.252 752.099 495.196 710.131 486.509 704.715C479.559 700.383 488.567 694.487 497.375 692.08Z" fill="#67AFB4" fill-opacity="0.59"/>
<path d="M604.649 627.548C566.388 630.803 673.146 865.364 650.78 950.207H666.848C650.78 729.812 604.895 641.201 613.461 635.776C620.313 631.436 613.334 629.959 604.649 627.548Z" fill="#67AFB4" fill-opacity="0.59"/>
<path d="M672.898 712.914C656.12 729.931 659.708 877.681 663.6 949.429L674.764 950.229C669.107 832.961 677.982 748.358 683.127 720.715C684.803 706.384 677.006 709.543 672.898 712.914Z" fill="#67AFB4" fill-opacity="0.59"/>
<path d="M186.045 847C157.8 848.11 224.71 928.076 208.199 957H262.016C302.328 889.339 306.528 875.005 312.851 873.155C317.91 871.676 192.457 847.822 186.045 847Z" fill="#7DB7BB"/>
<path d="M242.975 882.5C217.5 867 270.276 936.49 258.617 957L296.5 959.5C324.965 911.522 353.5 890.613 336 894C289.5 903 247.502 883.083 242.975 882.5Z" fill="#7DB7BB"/>
<path d="M504.867 958L530 880.967C522.628 884.735 503.66 890.01 486.771 880.967C469.881 871.924 470.685 928.554 477.723 958H504.867Z" fill="#67AFB4"/>
<path d="M403 799.983L415.5 958H456.466C465.17 897.599 477.355 781.433 456.466 799.983C435.577 818.533 412.118 807.712 403 799.983Z" fill="#67AFB4"/>
<path d="M402 958.154L377 866.154C384.333 870.654 403.2 876.954 420 866.154C436.8 855.354 436 922.988 429 958.154H402Z" fill="#67AFB4"/>
<path d="M477.867 957L503 830.586C495.628 836.77 476.66 845.426 459.771 830.586C442.881 815.746 443.685 908.679 450.723 957H477.867Z" fill="#67AFB4"/>
<path d="M1113.32 797.853C1113.32 810.405 1093.24 840.738 1083.2 854.336L1053.85 862.703C1047.42 855.73 1030.68 839.692 1030.68 827.141C1030.68 811.451 1022.19 776.934 1025.28 752.877C1027.75 733.631 1026.31 714.176 1025.28 706.854C1023.22 703.368 1019.1 695.349 1012.15 714.176C1007.59 726.52 993.872 723.59 978.169 720.452C978.169 725.333 978.806 729.059 987.436 742.417C992.842 750.785 999.793 786.348 999.793 788.44C999.021 791.578 1007.05 846.805 1008.29 854.336C1010.52 867.933 1016.01 871.42 1019.1 875.255C1035.83 890.596 1065.44 920.232 1049.99 916.048C1030.68 910.818 1018.33 890.945 1012.15 886.761C1007.21 883.414 1002.88 863.749 1001.34 854.336C1000.72 844.294 993.872 824.351 990.526 815.635C986.819 784.675 986.664 774.842 981.258 774.842C981.258 777.98 958.861 775.888 955.772 776.934L955 782.164V789.486L955.772 803.083C960.097 818.982 965.812 843.876 968.129 854.336C968.747 861.866 977.139 871.42 981.258 875.255C985.583 879.439 992.328 893.734 995.159 900.358C995.159 914.583 1037.38 946.729 1058.49 961.024H1088.61C1099.73 961.024 1116.41 940.105 1117.95 939.059C1120.27 938.013 1162.49 910.469 1171.24 900.358C1214.49 845.131 1220.67 788.788 1218.35 767.521C1211.56 774.215 1178.19 741.371 1178.19 748.693C1172.01 813.543 1165.84 820.865 1155.02 854.336C1146.37 881.112 1112.81 906.634 1097.1 916.048V905.588C1102.66 891.363 1132.37 854.336 1146.53 837.6C1161.2 792.624 1170.47 671.292 1161.2 683.843C1151.92 696.416 1124.13 674.429 1117.18 678.613C1110.23 682.797 1113.32 782.164 1113.32 797.853Z" fill="#67AFB4" fill-opacity="0.59"/>
<path d="M1091.7 649.327C1080.58 664.389 1060.8 655.603 1052.31 649.327C1055.14 675.476 1059.11 729.448 1052.31 736.142C1043.81 744.51 1045.36 838.647 1053.08 859.566C1059.26 876.302 1055.91 931.041 1053.08 955.795C1066.67 970.02 1086.55 964.86 1094.01 958.933C1094.01 927.903 1089.84 859.984 1082.43 853.29C1075.01 846.596 1079.34 796.808 1082.43 772.751C1105.6 673.384 1105.6 630.499 1091.7 649.327Z" fill="#67AFB4" fill-opacity="0.59"/>
<defs>
<linearGradient id="paint0_linear_169_3014" x1="720" y1="0" x2="720" y2="977" gradientUnits="userSpaceOnUse">
<stop stop-color="#B4ECF0"/>
<stop offset="1" stop-color="#5CB3B9"/>
</linearGradient>
</defs>
</svg>
