<svg width="282" height="343" viewBox="0 0 282 343" fill="none" xmlns="http://www.w3.org/2000/svg">
<path d="M151.271 343H92.7309C91.4547 343 90.502 341.817 90.8848 340.6C94.3653 329.529 103.937 323.855 109.657 321.936C110.527 321.645 111.149 320.854 111.149 319.937V309.131C111.149 303.54 101.859 291.39 97.2145 286.014C91.8553 277.77 81.1369 259.886 81.1369 254.295C81.1369 247.306 63.9866 241.93 55.9483 238.705C49.5914 236.154 37.1234 229.19 31.4881 225.915C31.3564 225.838 31.2436 225.754 31.1332 225.649C25.1639 219.969 12.2761 204.68 7.17754 187.632C2.12779 170.747 11.1209 176.649 16.5227 181.957C16.7236 182.154 16.8746 182.391 16.9793 182.653C18.6247 186.761 24.1453 197.684 34.5102 211.824C44.9613 226.082 49.1284 214.921 49.9924 207.046C50.0352 206.655 49.9536 206.267 49.7704 205.92C47.3419 201.309 42.59 190.938 40.9418 182.256C39.3734 173.995 42.169 174.1 44.1613 175.412C44.5203 175.648 44.7443 176.019 44.8594 176.433C48.2102 188.493 64.3546 213.331 72.6015 225.096C72.9212 225.552 73.4458 225.855 74.001 225.898C91.4025 227.245 65.893 193.749 50.3906 176.187C50.1647 175.931 50.0131 175.624 49.9377 175.291C45.5514 155.907 35.8933 147.171 30.4972 144.626C29.7121 144.256 29.1512 143.498 29.1512 142.629V131.434C29.1512 130.927 28.9571 130.438 28.6124 130.067C16.7432 117.302 7.92144 106.563 4.72294 102.444C4.5718 102.249 4.46332 102.036 4.39375 101.8C1.00817 90.2919 -3.56524 71.4386 4.49794 85.4867C9.78037 94.6901 16.5502 100.322 21.9725 103.437C23.7675 104.468 27.1153 101.167 27.3662 99.1122C27.5781 97.3763 28.1185 95.3443 29.1512 93.0133C32.3968 85.688 37.8177 89.3375 40.5101 92.4839C40.7986 92.8211 40.9418 93.2541 40.9418 93.6978V113.128C40.9418 113.336 40.9743 113.543 41.0383 113.742L52.5248 149.356C52.6594 149.774 52.9234 150.14 53.2992 150.366C55.7341 151.829 59.6995 152.875 59.6995 147.312C59.6995 141.334 49.8395 112.607 44.8028 98.6903C44.7287 98.4857 44.6914 98.2869 44.6866 98.0694C44.3299 81.8038 43.8418 47.2463 44.6936 36.5646C45.7655 23.1244 52.7327 6.99623 55.9483 4.84581C57.4522 3.84005 60.0063 7.31772 62.3683 11.562C63.4286 13.467 66.6667 12.7528 66.6667 10.5726V10.201C66.6667 9.86202 66.7645 9.50656 66.9308 9.2112C80.0789 -14.1325 81.1369 13.9992 81.1369 16.1355C81.1369 17.8445 71.6164 33.136 66.7624 40.716C66.6972 40.8178 66.6456 40.9167 66.6 41.0287C62.4812 51.1477 55.4352 73.9365 59.6995 85.4867C63.9372 96.9647 72.0144 86.9789 75.6512 80.3431C75.7367 80.1871 75.7979 80.0228 75.8381 79.8496L80.7893 58.492C80.9942 57.6083 81.7755 56.964 82.6824 56.9873C94.6611 57.2957 95.3499 65.9738 94.0772 70.6949C94.0272 70.8801 94.0012 71.067 93.9929 71.2586C93.8462 74.6615 91.1333 82.5642 81.1369 89.2493C70.8469 96.1307 73.2765 128.674 75.7775 144.086C77.3853 164.873 82.5303 202.685 90.2478 187.632C97.6935 173.109 100.749 153.749 101.437 145.001C101.482 144.418 101.253 143.846 100.843 143.43C86.3291 128.71 90.0496 112.951 93.8839 106.64C93.9616 106.512 94.0498 106.402 94.1555 106.297C103.486 96.972 120.991 82.5646 117.58 98.389C115.271 109.101 114.128 115.705 113.628 119.314C113.421 120.8 114.891 121.758 116.258 121.142C125.932 116.786 131.577 117.675 133.707 118.994C134.045 119.204 134.248 119.56 134.334 119.948C135.149 123.628 135.576 129.587 131.515 127.958C127.332 126.279 120.768 134.699 117.796 139.437C117.652 139.668 117.56 139.924 117.521 140.193L113.32 169.163C113.302 169.29 113.296 169.421 113.302 169.548C114.026 186.013 107.072 194.446 102.623 197.235C101.961 197.65 101.502 198.347 101.502 199.128V220.156C101.502 220.335 101.529 220.523 101.577 220.696C110.435 252.558 122.058 241.884 127.003 232.165C127.153 231.869 127.22 231.543 127.208 231.212L124.566 163.376C124.554 163.065 124.621 162.739 124.752 162.456C133.57 143.409 138.256 154.586 139.531 162.755C139.546 162.854 139.554 162.953 139.554 163.053V180.006C139.554 181.204 140.618 182.121 141.815 182.066C156.935 181.365 148.034 194.669 145.985 195.696C144.277 196.553 141.011 222.706 139.572 235.845C139.56 235.962 139.538 236.068 139.506 236.181C137.713 242.365 134.749 256.522 136.874 265.047C138.913 273.229 139.497 270.71 139.55 268.132C139.555 267.87 139.605 267.611 139.705 267.369L145.985 252.145C147.593 248.74 150.808 239.887 150.808 231.716C150.808 221.502 153.488 225.802 157.775 226.877C161.039 227.696 164.561 219.496 166.126 214.684C166.275 214.226 166.598 213.819 167.009 213.568C185.45 202.367 177.171 220.911 170.638 231.716L155.749 255.186C155.671 255.309 155.604 255.446 155.555 255.583C147.299 278.551 158.748 278.49 165.915 275.452C166.204 275.33 166.453 275.134 166.65 274.89L177.439 261.49C177.549 261.353 177.677 261.234 177.813 261.122C179.819 259.471 183.257 254.049 182.428 244.081C181.371 231.351 183.443 225.947 188.646 212.381L188.86 211.824C194.219 197.847 186.18 202.685 183.5 195.696C180.821 188.707 189.932 184.406 192.611 190.858C194.166 194.601 195.814 196.496 196.944 197.324C197.523 197.748 198.157 198.784 198.772 198.413C199.623 197.9 201 194.605 202.794 184.406C205.324 170.025 212.208 178.038 215.494 184.102C215.603 184.304 215.673 184.523 215.705 184.751L217.199 195.239C217.242 195.54 217.217 195.843 217.122 196.131C215.067 202.35 210.197 213.974 206.01 213.974C200.65 213.974 198.506 213.974 195.291 236.016C192.742 253.488 199.103 247.42 202.695 242.077C202.762 241.979 202.838 241.884 202.92 241.798C225.107 218.657 229.947 206.083 229.591 202.685V179.926C229.591 179.689 229.549 179.458 229.469 179.235C227.2 172.878 225.375 161.212 235.486 162.902C245.222 164.53 240.372 171.42 236.19 175.193C235.75 175.59 235.486 176.147 235.486 176.74V182.256C235.486 197.847 241.381 192.471 245.133 190.858C248.104 189.581 251.669 176.258 253.128 169.557C253.158 169.419 253.172 169.282 253.172 169.14V137.834C253.172 137.358 253.342 136.897 253.651 136.535L256.387 133.333C265.194 124.919 266.515 131.937 266.067 136.776C266.047 136.989 265.988 137.196 265.899 137.39L262.819 144.086C261.568 147.132 260.996 151.397 268.714 144.086C276.065 137.122 275.247 140.661 273.763 143.645C273.618 143.937 273.537 144.256 273.537 144.581V148.266C273.537 149.261 273.985 150.586 273.878 151.575C273.505 155.053 270.213 164.941 259.067 187.632C245.055 216.156 229.921 228.422 223.374 231.4C222.895 231.618 222.494 231.999 222.281 232.48C216.559 245.4 222.238 240.652 226.1 236.327C226.283 236.122 226.503 235.956 226.751 235.839L235.098 231.899C235.354 231.778 235.581 231.605 235.765 231.39L245.133 220.426C246.919 218.275 251.671 212.469 256.387 206.448C261.104 200.428 262.64 203.94 262.819 206.448C263.176 210.211 264.855 217.737 268.714 217.737C273.537 217.737 284.256 204.297 281.576 213.974C279.433 221.716 272.108 225.085 268.714 225.802L250.665 228.997C250.55 229.017 250.434 229.025 250.318 229.036C248.996 229.159 246.362 230.672 245.133 236.016C244.014 240.881 239.567 242.029 236.665 242.008C235.936 242.003 235.22 242.294 234.778 242.875C231.491 247.19 225.41 254.295 222.624 254.295C219.622 254.295 208.153 258.954 202.794 261.284C199.4 262.538 190.789 267.52 183.5 277.412C176.265 287.231 186.387 284.442 192.477 281.772C192.568 281.732 192.653 281.686 192.737 281.633L202.532 275.428C202.706 275.318 202.858 275.184 202.992 275.028C206.008 271.522 213.82 264.227 222.624 261.284C231.627 258.273 228.876 262.538 226.375 265.047L211.667 278.22C211.47 278.396 211.305 278.619 211.195 278.859C206.999 287.976 212.871 287.65 216.781 286.202C217.101 286.084 217.373 285.875 217.592 285.614C220.756 281.863 229.39 274.279 241.381 270.961C253.426 267.628 252.696 272.098 250.69 274.987C250.562 275.171 250.397 275.326 250.212 275.451L223.216 293.678C222.833 293.937 222.578 294.347 222.247 294.67C218.767 298.074 194.73 295.857 181.988 294.163C181.571 294.107 181.143 294.192 180.772 294.39C135.877 318.385 132.412 323.884 136.508 323.677C136.749 323.665 136.998 323.676 137.231 323.739C147.489 326.485 151.833 335.225 153.116 340.816C153.382 341.972 152.457 343 151.271 343Z" fill="url(#paint0_linear_428_4260)"/>
<defs>
<linearGradient id="paint0_linear_428_4260" x1="141" y1="0" x2="141" y2="343" gradientUnits="userSpaceOnUse">
<stop offset="0.390625" stop-color="#FFEE59"/>
<stop offset="0.609375" stop-color="#FFAB7C"/>
<stop offset="1" stop-color="#5BE44F"/>
</linearGradient>
</defs>
</svg>