<svg width="255" height="221" viewBox="0 0 255 221" fill="none" xmlns="http://www.w3.org/2000/svg">
<path d="M152.609 108.789C152.609 117.723 133.254 139.311 123.576 148.989L95.2877 154.945C89.084 149.982 72.9546 138.567 72.9546 129.634C72.9546 118.467 64.7658 93.901 67.7436 76.779C70.1258 63.0814 68.7361 49.2349 67.7436 44.0238C65.7584 41.5424 61.7881 35.8351 55.0882 49.2349C50.6956 58.02 37.4699 55.9348 22.333 53.7015C22.333 57.1755 22.9471 59.827 31.2663 69.3346C36.4773 75.2901 43.1772 100.601 43.1772 102.09C42.4328 104.323 50.1749 143.629 51.366 148.989C53.5167 158.667 58.8103 161.148 61.7881 163.878C77.9175 174.796 106.454 195.889 91.5655 192.911C72.9546 189.189 61.0437 175.044 55.0882 172.067C50.3238 169.684 46.155 155.689 44.6661 148.989C44.0705 141.842 37.4699 127.649 34.244 121.445C30.6707 99.4099 30.5218 92.4121 25.3108 92.4121C25.3108 94.6454 3.72217 93.1565 0.744435 93.901L0 97.6231V102.834L0.744435 112.512C4.91327 123.827 10.4221 141.545 12.6554 148.989C13.2509 154.349 21.3405 161.148 25.3108 163.878C29.4796 166.856 35.981 177.03 38.7106 181.744C38.7106 191.869 79.4064 214.748 99.7543 224.921H128.787C139.507 224.921 155.587 210.033 157.076 209.288C159.309 208.544 200.005 188.94 208.442 181.744C250.13 142.438 256.086 102.338 253.852 87.2011C247.301 91.9654 215.142 68.5902 215.142 73.8012C209.186 119.956 203.231 125.167 192.809 148.989C184.471 168.046 152.113 186.211 136.976 192.911V185.466C142.336 175.342 170.972 148.989 184.62 137.078C198.764 105.067 207.697 18.7131 198.764 27.6461C189.815 36.5947 163.031 20.9462 156.331 23.9239C149.631 26.9017 152.609 97.623 152.609 108.789Z" fill="url(#paint0_linear_224_1242)"/>
<path d="M131.765 3.0794C121.045 13.7993 101.988 7.54601 93.7988 3.0794C96.5284 21.6903 100.35 60.1032 93.7988 64.8676C85.61 70.8231 87.0988 137.822 94.5432 152.711C100.499 164.622 97.2728 203.581 94.5432 221.199C107.645 231.323 126.802 227.651 133.998 223.432C133.998 201.347 129.978 153.009 122.832 148.244C115.685 143.48 119.854 108.045 122.832 90.9227C145.165 20.2014 145.165 -10.3204 131.765 3.0794Z" fill="url(#paint1_linear_224_1242)"/>
<defs>
<linearGradient id="paint0_linear_224_1242" x1="127.5" y1="23.5839" x2="127.5" y2="224.922" gradientUnits="userSpaceOnUse">
<stop stop-color="#FFD44F"/>
<stop offset="1" stop-color="#FF8A00"/>
</linearGradient>
<linearGradient id="paint1_linear_224_1242" x1="114.594" y1="0" x2="114.594" y2="226.045" gradientUnits="userSpaceOnUse">
<stop stop-color="#FFD04B"/>
<stop offset="1" stop-color="#FF9A16"/>
</linearGradient>
</defs>
</svg>
