<svg width="302" height="325" viewBox="0 0 302 325" fill="none" xmlns="http://www.w3.org/2000/svg">
<path d="M120.606 160.499C120.606 173.678 143.571 205.528 155.054 219.805L188.619 228.592C195.98 221.27 215.118 204.43 215.118 191.251C215.118 174.777 224.834 138.533 221.301 113.273C218.474 93.0649 220.123 72.637 221.301 64.9491C223.656 61.2881 228.367 52.868 236.316 72.637C241.528 85.5977 257.221 82.5215 275.181 79.2266C275.181 84.3519 274.453 88.2636 264.582 102.29C258.399 111.077 250.449 148.418 250.449 150.614C251.332 153.909 242.146 211.898 240.733 219.805C238.181 234.083 231.9 237.744 228.367 241.771C209.229 257.879 175.37 288.997 193.035 284.604C215.118 279.113 229.25 258.245 236.316 253.852C241.969 250.338 246.916 229.69 248.682 219.805C249.389 209.262 257.221 188.322 261.048 179.17C265.288 146.661 265.465 136.337 271.648 136.337C271.648 139.632 297.263 137.435 300.796 138.533L301.68 144.025V151.713L300.796 165.99C295.85 182.684 289.314 208.823 286.664 219.805C285.957 227.713 276.359 237.744 271.648 241.771C266.702 246.164 258.987 261.174 255.749 268.13C255.749 283.066 207.462 316.82 183.319 331.83H148.871C136.152 331.83 117.073 309.864 115.306 308.766C112.656 307.668 64.3699 278.746 54.3593 268.13C4.89526 210.141 -2.17105 150.981 0.478821 128.649C8.25174 135.678 46.4097 101.192 46.4097 108.88C53.476 176.973 60.5423 184.661 72.9084 219.805C82.8012 247.921 121.195 274.719 139.155 284.604V273.621C132.795 258.685 98.8181 219.806 82.6245 202.233C65.8421 155.008 55.2426 27.6078 65.8421 40.7868C76.46 53.9888 108.24 30.9023 116.189 35.2954C124.139 39.6885 120.606 144.025 120.606 160.499Z" fill="url(#paint0_linear_224_1250)"/>
<path d="M145.338 4.54309C158.057 20.3582 180.669 11.1327 190.386 4.54309C187.147 32 182.613 88.6711 190.386 95.7C200.102 104.486 198.335 203.331 189.502 225.296C182.436 242.869 186.264 300.345 189.502 326.338C173.956 341.274 151.226 335.856 142.688 329.633C142.688 297.05 147.458 225.736 155.937 218.707C164.417 211.678 159.47 159.4 155.937 134.139C129.439 29.8034 129.439 -15.2259 145.338 4.54309Z" fill="url(#paint1_linear_224_1250)"/>
<defs>
<linearGradient id="paint0_linear_224_1250" x1="150.84" y1="34.7305" x2="150.84" y2="329.66" gradientUnits="userSpaceOnUse">
<stop stop-color="#EA93AD"/>
<stop offset="1" stop-color="#DB3786"/>
</linearGradient>
<linearGradient id="paint1_linear_224_1250" x1="165.711" y1="0" x2="165.711" y2="333.487" gradientUnits="userSpaceOnUse">
<stop stop-color="#EA93AD"/>
<stop offset="1" stop-color="#DB3786"/>
</linearGradient>
</defs>
</svg>
