<svg width="426" height="536" viewBox="0 0 426 536" fill="none" xmlns="http://www.w3.org/2000/svg">
<path d="M404.79 303.507C348.218 306.312 268.87 430.846 236.268 492.763L260.034 492.579C339.681 347.713 408.07 316.624 420.708 312.583C430.819 309.35 417.649 305.159 404.79 303.507Z" fill="#8043BF"/>
<path d="M249.621 239.778C193.53 302.326 233.148 434.522 259.602 491.494H276.374C215.351 320.578 256.042 238.869 284.293 227.05C352.866 126.137 325.129 42.4973 309.719 0.677846C296.621 -2.04986 293.539 3.70783 291.998 13.4052L309.719 73.4081C313.058 102.803 305.712 177.23 249.621 239.778Z" fill="#9D5BE1"/>
<path d="M61.1409 0C143.144 6.18663 259.52 330.24 307.457 491.494H282.978C165.94 114.281 66.4956 34.3702 48.1366 24.0591C33.4495 15.8103 42.527 4.58269 61.1409 0Z" fill="url(#paint0_linear_228_1582)"/>
<path d="M83.6788 112.417C140.271 117.156 220.583 365.367 253.665 488.88H229.899C149.129 199.951 80.5007 138.743 67.8309 130.845C57.6951 124.527 70.833 115.927 83.6788 112.417Z" fill="url(#paint1_linear_228_1582)"/>
<path d="M24.715 274.309C80.4412 263.902 200.386 413.719 253.393 489.928L230.326 495.654C103.048 318.197 26.0851 293.017 12.4522 290.687C1.54593 288.823 12.8416 279.796 24.715 274.309Z" fill="url(#paint2_linear_228_1582)"/>
<path d="M18.881 218.888C74.6072 208.481 194.552 358.298 247.559 434.507L224.493 440.234C97.2139 262.776 20.2511 237.596 6.61824 235.266C-4.28805 233.402 7.00762 224.375 18.881 218.888Z" fill="url(#paint3_linear_228_1582)"/>
<path d="M84.2197 373.511C140.798 375.437 220.504 453.909 253.284 492.904L229.518 492.72C149.454 401.474 80.9776 381.744 68.3274 379.168C58.2073 377.108 71.3657 374.513 84.2197 373.511Z" fill="url(#paint4_linear_228_1582)"/>
<path d="M240.131 18.2998C184.33 23.0471 340.03 365.141 307.41 488.879H330.845C307.41 167.445 240.49 38.2122 252.982 30.3C262.977 23.9702 252.798 21.8163 240.131 18.2998Z" fill="url(#paint5_linear_228_1582)"/>
<path d="M339.667 142.801C315.198 167.621 320.431 383.105 326.107 487.744L342.39 488.912C334.139 317.882 347.082 194.494 354.586 154.179C357.03 133.279 345.659 137.885 339.667 142.801Z" fill="#BC61D8"/>
<defs>
<linearGradient id="paint0_linear_228_1582" x1="163.748" y1="0" x2="163.748" y2="491.494" gradientUnits="userSpaceOnUse">
<stop stop-color="#FF6DC5"/>
<stop offset="0.526042" stop-color="#B475F4"/>
</linearGradient>
<linearGradient id="paint1_linear_228_1582" x1="154.49" y1="112.417" x2="154.49" y2="488.88" gradientUnits="userSpaceOnUse">
<stop stop-color="#FF6DC5"/>
<stop offset="0.526042" stop-color="#9D5BE1"/>
</linearGradient>
<linearGradient id="paint2_linear_228_1582" x1="93.4395" y1="257.247" x2="157.139" y2="513.824" gradientUnits="userSpaceOnUse">
<stop stop-color="#FF6DC5"/>
<stop offset="0.526042" stop-color="#9D5BE1"/>
</linearGradient>
<linearGradient id="paint3_linear_228_1582" x1="87.6055" y1="201.826" x2="151.305" y2="458.403" gradientUnits="userSpaceOnUse">
<stop stop-color="#FF6DC5"/>
<stop offset="0.526042" stop-color="#9D5BE1"/>
</linearGradient>
<linearGradient id="paint4_linear_228_1582" x1="155.028" y1="374.061" x2="154.111" y2="492.134" gradientUnits="userSpaceOnUse">
<stop stop-color="#FF6DC5"/>
<stop offset="0.526042" stop-color="#9D5BE1"/>
</linearGradient>
<linearGradient id="paint5_linear_228_1582" x1="405.2" y1="111.73" x2="405.2" y2="488.879" gradientUnits="userSpaceOnUse">
<stop stop-color="#FF6DC5"/>
<stop offset="0.526042" stop-color="#9D5BE1"/>
</linearGradient>
</defs>
</svg>
