<svg width="158" height="676" viewBox="0 0 158 676" fill="none" xmlns="http://www.w3.org/2000/svg">
<path d="M20 712C53.6709 687.921 90.0717 618.184 58.2253 501.852C40.6434 486.321 20 439.934 31.8525 412.727C48.5294 402.049 76.2794 294.921 61.0864 270.258C59.9614 268.921 58.992 267.821 58.2253 267C59.3112 267.824 60.262 268.92 61.0864 270.258C73.1047 284.543 102.885 325.941 93.0573 344.242C87.7495 359.773 49.856 465.014 79.712 487.78C91.9861 502.895 107.786 542.131 93.0573 558.142C74.6461 578.156 111.468 611.424 71.6605 640.074V712H20Z" fill="url(#paint0_linear_198_1116)"/>
<path d="M79.3809 711.5C45.5475 673 8.97119 561.5 40.9712 375.5C58.6379 350.667 79.3809 276.5 67.4712 233C50.7138 215.926 22.83 44.6423 38.0963 5.20883C39.2267 3.07073 40.2008 1.3125 40.9712 0C39.8801 1.3176 38.9246 3.06911 38.0963 5.20883C26.02 28.0491 -3.90436 94.2391 5.97119 123.5C11.3045 148.333 49.3809 316.6 19.3809 353C7.04752 377.167 -8.82881 439.9 5.97119 465.5C24.4712 497.5 -12.5288 550.692 27.4712 596.5V711.5H79.3809Z" fill="url(#paint1_linear_198_1116)"/>
<path d="M158 712C124.329 687.921 87.9283 618.184 119.775 501.852C137.357 486.321 158 439.934 146.148 412.727C129.471 402.049 101.721 294.921 116.914 270.258C118.039 268.921 119.008 267.821 119.775 267C118.689 267.824 117.738 268.92 116.914 270.258C104.895 284.543 75.1146 325.941 84.9427 344.242C90.2505 359.773 128.144 465.014 98.288 487.78C86.0139 502.895 70.2138 542.131 84.9427 558.142C103.354 578.156 66.5316 611.424 106.34 640.074V712H158Z" fill="url(#paint2_linear_198_1116)"/>
<defs>
<linearGradient id="paint0_linear_198_1116" x1="56.7774" y1="358.94" x2="56.7774" y2="705.433" gradientUnits="userSpaceOnUse">
<stop stop-color="#83CD62"/>
<stop offset="1" stop-color="#81993B"/>
</linearGradient>
<linearGradient id="paint1_linear_198_1116" x1="42.426" y1="147" x2="42.426" y2="701" gradientUnits="userSpaceOnUse">
<stop stop-color="#AFDF98"/>
<stop offset="1" stop-color="#A9C165"/>
</linearGradient>
<linearGradient id="paint2_linear_198_1116" x1="121.223" y1="358.94" x2="121.223" y2="705.433" gradientUnits="userSpaceOnUse">
<stop stop-color="#6FBF49"/>
<stop offset="1" stop-color="#9DD682"/>
</linearGradient>
</defs>
</svg>
