<svg width="170" height="899" viewBox="0 0 170 899" fill="none" xmlns="http://www.w3.org/2000/svg">
<path d="M143 899C109.192 844.377 49.5704 669.159 81.5463 405.267C99.1997 370.034 129.21 286.658 108.026 235.014C93.0977 213.418 69.3319 167.066 75.1624 131.306C77.3665 123.945 79.6033 117.7 81.5463 113C78.2766 118.606 76.2265 124.78 75.1624 131.306C67.1643 158.017 59.5961 199.422 68.0564 235.014C73.3858 270.247 76.55 353.624 46.5726 405.267C34.2486 439.554 13.2977 517.208 28.0865 553.529C46.5726 598.93 28.0865 685.747 68.0564 750.738L108.026 899H143Z" fill="url(#paint0_linear_233_1611)"/>
<path d="M0 899C33.8079 836.524 93.4296 636.116 61.4537 334.285C43.8003 293.987 13.7896 198.624 34.9737 139.556C49.9023 114.855 73.6681 61.8384 67.8376 20.9382C65.6335 12.5188 63.3967 5.37569 61.4537 0C64.7234 6.41189 66.7735 13.4732 67.8376 20.9382C75.8357 51.4893 83.4039 98.847 74.9436 139.556C69.6142 179.854 66.45 275.217 96.4274 334.285C108.751 373.502 129.702 462.32 114.913 503.862C96.4274 555.79 114.913 655.089 74.9436 729.423L34.9737 899H0Z" fill="url(#paint1_linear_233_1611)"/>
<path d="M50 899C83.8079 852.508 143.43 703.372 111.454 478.762C93.8003 448.773 63.7896 377.808 84.9737 333.852C99.9023 315.47 123.668 276.018 117.838 245.581C115.633 239.316 113.397 234 111.454 230C114.723 234.771 116.773 240.026 117.838 245.581C125.836 268.316 133.404 303.558 124.944 333.852C119.614 363.84 116.45 434.806 146.427 478.762C158.751 507.945 179.702 574.04 164.913 604.954C146.427 643.597 164.913 717.491 124.944 772.808L84.9737 899H50Z" fill="url(#paint2_linear_233_1611)"/>
<defs>
<linearGradient id="paint0_linear_233_1611" x1="83" y1="113" x2="83" y2="899" gradientUnits="userSpaceOnUse">
<stop stop-color="#BBD5AE"/>
<stop offset="1" stop-color="#79CD52"/>
</linearGradient>
<linearGradient id="paint1_linear_233_1611" x1="60" y1="0" x2="60" y2="899" gradientUnits="userSpaceOnUse">
<stop stop-color="#98E67B"/>
<stop offset="1" stop-color="#D9F762"/>
</linearGradient>
<linearGradient id="paint2_linear_233_1611" x1="110" y1="230" x2="110" y2="899" gradientUnits="userSpaceOnUse">
<stop stop-color="#D9F762"/>
<stop offset="1" stop-color="#98E67B"/>
</linearGradient>
</defs>
</svg>
