<svg width="77" height="94" viewBox="0 0 77 94" fill="none" xmlns="http://www.w3.org/2000/svg">
<path d="M39.6938 94H27.1234C25.8477 94 24.8934 92.7945 25.558 91.7057C26.4622 90.2244 27.7725 89.2452 28.8992 88.6706C29.7157 88.2541 30.3491 87.4646 30.3491 86.548V84.7182C30.3491 83.1859 27.8126 79.8561 26.5444 78.3828C25.0811 76.1237 22.1544 71.2224 22.1544 69.6901C22.1544 67.7747 17.4715 66.3015 15.2767 65.4176C13.5933 64.7398 10.3406 62.9243 8.7422 61.9965C8.61029 61.9199 8.48894 61.8294 8.37994 61.7227C6.70276 60.0809 3.31846 55.9806 1.95982 51.421C0.64871 47.0209 2.8046 48.2674 4.28768 49.6509C4.49332 49.8428 4.64305 50.083 4.75527 50.3409C5.31905 51.6364 6.80514 54.4665 9.42299 58.051C12.0904 61.7033 13.2586 59.2694 13.5924 57.1735C13.6541 56.7865 13.5662 56.3948 13.3912 56.0442C12.6944 54.6486 11.5877 52.1074 11.1791 49.9477C10.8615 48.2683 11.1995 47.8504 11.6173 47.8934C12.0442 47.9374 12.2538 48.4056 12.3909 48.8123C13.4888 52.0697 17.2381 57.9334 19.461 61.1647C19.7771 61.6242 20.2826 61.9776 20.834 61.8932C24.1961 61.3785 18.04 53.1995 14.0078 48.5687C13.7841 48.3118 13.6304 48.004 13.5497 47.6732C12.5446 43.5541 10.6667 41.2643 9.22695 40.1884C8.53219 39.6692 7.95973 38.8996 7.95973 38.0323V36.5896C7.95973 36.0845 7.76775 35.5981 7.42596 35.2262C4.5631 32.1119 2.40071 29.4907 1.45541 28.2875C1.30348 28.0941 1.19237 27.875 1.12417 27.6387C0.21034 24.4722 -0.914022 19.6819 1.22816 23.4278C2.22796 25.1761 3.4229 26.4541 4.55516 27.3581C5.36117 28.0016 7.54321 26.4341 7.95973 25.4905C8.72359 23.7602 9.92874 24.2643 10.7177 24.9887C11.0437 25.288 11.1791 25.7306 11.1791 26.1731V30.7757C11.1791 30.9834 11.2115 31.1898 11.275 31.3876L14.192 40.465C14.326 40.8819 14.5831 41.2707 14.9939 41.4228C15.6106 41.6511 16.3009 41.5885 16.3009 40.3711C16.3009 38.7643 13.711 31.1599 12.314 27.2702C12.2407 27.0662 12.2012 26.8558 12.1965 26.639C12.0997 22.091 11.975 12.897 12.2036 10.0206C12.4963 6.33731 14.3986 1.91733 15.2767 1.32801C15.677 1.05927 16.35 1.95851 16.9811 3.08168C17.2836 3.61993 18.2033 3.41718 18.2033 2.79977C18.2033 2.70413 18.2308 2.60388 18.2776 2.52049C21.8656 -3.86994 22.1544 3.83665 22.1544 4.42196C22.1544 4.88213 19.645 8.93549 18.3002 11.0474C18.2353 11.1492 18.1811 11.2532 18.1363 11.3653C17.006 14.1954 15.1532 20.3078 16.3009 23.4278C17.4226 26.4771 19.5294 23.9989 20.562 22.1877C20.6498 22.0336 20.7113 21.8669 20.7512 21.6941L21.8078 17.1195C22.0121 16.2351 22.8027 15.5402 23.6845 15.7552C25.7591 16.261 25.9717 18.0242 25.7359 19.1703C25.6974 19.3575 25.6709 19.5473 25.6463 19.7368C25.514 20.756 24.6972 22.7523 22.1544 24.459C19.3447 26.3448 20.0081 35.2635 20.691 39.4871C21.13 45.184 22.5349 55.5463 24.6421 51.421C26.5046 47.7749 27.3611 43.0162 27.636 40.4001C27.6969 39.8204 27.4669 39.2575 27.0815 38.8202C23.7477 35.0371 24.5799 31.1064 25.5525 29.3667C25.6255 29.2363 25.7183 29.1212 25.8243 29.0159C28.3978 26.4597 33.0228 22.6916 32.1053 26.9637C31.8146 28.3172 31.5916 29.4313 31.4223 30.3359C31.1461 31.8115 32.5401 32.7332 34.012 32.4382C34.9566 32.249 35.6484 32.2998 36.1037 32.4356C36.4842 32.549 36.7007 32.9142 36.7612 33.3066C36.9116 34.2825 36.8697 35.4536 35.91 35.0671C34.8383 34.6355 33.1942 36.6406 32.3251 37.9623C32.1762 38.1888 32.0853 38.4468 32.0466 38.715L30.962 46.2224C30.9438 46.3483 30.9381 46.4776 30.9425 46.6048C31.067 50.2031 29.8497 52.3772 28.7441 53.4694C28.1891 54.0177 27.7152 54.72 27.7152 55.5001V60.1389C27.7152 60.3177 27.7407 60.5028 27.7896 60.6748C30.1035 68.8262 33.0848 66.4856 34.5065 63.9473C34.6678 63.6594 34.7327 63.3298 34.7199 63L34.026 45.1164C34.0139 44.8056 34.0738 44.4932 34.2091 44.2131C36.4854 39.5035 37.7175 42.3152 38.0816 44.4959C38.098 44.5945 38.1051 44.694 38.1051 44.794V47.6968C38.1051 48.8946 39.2334 49.6226 40.3288 50.1071C42.0602 50.873 40.323 53.3985 39.8611 53.631C39.4002 53.863 38.5236 60.869 38.124 64.5081C38.1112 64.6247 38.0883 64.7371 38.0567 64.85C37.5651 66.6034 36.807 70.3558 37.3734 72.6368C37.8527 74.5671 38.0377 74.3241 38.0889 73.7683C38.1129 73.5086 38.1561 73.2495 38.2552 73.0082L39.8611 69.1009C40.3001 68.1678 41.1782 65.7416 41.1782 63.5023C41.1782 60.7032 41.9098 61.8815 43.0805 62.1763C43.8639 62.3736 44.7019 60.6602 45.1834 59.3472C45.3492 58.8951 45.6494 58.4899 46.0699 58.2551C50.4906 55.7873 48.3186 60.6374 46.5926 63.5023L42.6116 69.8007C42.5342 69.9232 42.4682 70.0586 42.4204 70.1953C40.387 76.0049 43.0427 76.2986 44.9788 75.6145C45.2751 75.5098 45.5244 75.3084 45.7211 75.0632L48.3296 71.8116C48.4394 71.6748 48.5699 71.5568 48.6919 71.4307C49.2441 70.8597 50.0198 69.4014 49.812 66.8909C49.5233 63.4023 50.0892 61.9213 51.5097 58.2036L51.5681 58.051C53.0314 54.2205 50.8364 55.5463 50.1047 53.631C49.373 51.7157 51.8607 50.537 52.5924 52.305C52.797 52.7993 53.0075 53.1761 53.2053 53.4591C53.6166 54.0479 54.434 54.3207 54.6656 53.6409C54.8626 53.0628 55.1001 52.0931 55.3728 50.537C56.0335 46.7678 57.7816 48.6118 58.7177 50.2337C58.8323 50.4324 58.9014 50.6531 58.9336 50.8802L59.2593 53.1759C59.3018 53.4754 59.2776 53.7802 59.1781 54.0659C58.5678 55.8187 57.3269 58.6402 56.2508 58.6402C54.7875 58.6402 54.2021 58.6402 53.3241 64.6808C52.6451 69.3522 54.2816 67.8834 55.2727 66.4494C55.3403 66.3516 55.4161 66.2563 55.4981 66.1702C61.4787 59.8891 62.7865 56.4729 62.6896 55.5463V49.5682C62.6896 49.332 62.6457 49.0983 62.5731 48.8735C61.9983 47.0944 61.6642 44.2016 64.2993 44.6437C66.5854 45.0273 65.9264 46.4773 64.9709 47.5335C64.5742 47.9719 64.2993 48.5212 64.2993 49.1124V49.9477C64.2993 54.2203 65.909 52.747 66.9334 52.305C67.7229 51.9644 68.6664 48.4966 69.0833 46.6185C69.1139 46.4807 69.1285 46.3406 69.1285 46.1994V38.3076C69.1285 37.8325 69.2976 37.3729 69.6056 37.0111L70.0065 36.5403C72.2731 34.3667 72.7236 35.9505 72.6654 37.2502C72.6559 37.4637 72.5951 37.6706 72.5061 37.8649L71.7625 39.4871C71.4211 40.322 71.265 41.4908 73.3722 39.4871C75.2148 37.7351 75.1777 38.4087 74.8458 39.1637C74.7508 39.3798 74.6892 39.6105 74.6892 39.8465C74.6892 40.5704 74.8124 41.6101 74.6224 42.3086C74.2494 43.6804 73.1893 46.4128 70.7382 51.421C67.2518 58.5445 63.5109 61.9681 61.5216 63.1371C61.068 63.4037 60.659 63.7723 60.4608 64.2597C59.3798 66.9182 60.5609 66.0299 61.5328 64.9895C61.7201 64.7889 61.9396 64.6202 62.1876 64.5027L63.9112 63.6862C64.167 63.565 64.3943 63.3908 64.5778 63.1752L66.9334 60.4083C67.4212 59.8189 68.7187 58.2277 70.0065 56.5777C71.2942 54.9277 71.7137 55.8902 71.7625 56.5777C71.8601 57.6089 72.3186 59.6715 73.3722 59.6715C74.6892 59.6715 77.616 55.9882 76.8843 58.6402C76.299 60.7617 74.299 61.685 73.3722 61.8815L68.5704 62.7346C68.4549 62.7552 68.3362 62.76 68.2233 62.7921C67.8402 62.9011 67.2336 63.3712 66.9334 64.6808C66.7262 65.5846 66.1016 66.0202 65.4739 66.2054C64.7723 66.4123 64.0344 66.6714 63.5723 67.2386C62.6537 68.3661 61.4146 69.6901 60.7873 69.6901C59.9678 69.6901 56.8362 70.967 55.3728 71.6055C54.446 71.9492 52.0949 73.3145 50.1047 76.0254C48.1679 78.6635 50.7861 77.9809 52.4565 77.2634C52.5474 77.2243 52.6343 77.1774 52.7179 77.1243L55.1109 75.6026C55.2845 75.4923 55.4381 75.3557 55.5759 75.203C56.4878 74.1932 58.5169 72.3674 60.7873 71.6055C63.2457 70.7804 62.4945 71.9492 61.8116 72.6368L58.0119 76.0525C57.8154 76.2291 57.651 76.4439 57.5507 76.6884C56.7409 78.6641 57.8526 78.8091 58.8318 78.5493C59.1613 78.4618 59.4315 78.2403 59.6644 77.9912C60.6827 76.9021 62.9119 75.0899 65.909 74.2575C68.9199 73.4212 69.0074 74.3772 68.5804 75.1523C68.4723 75.3484 68.3022 75.5002 68.1169 75.6258L61.3782 80.1923C60.996 80.4513 60.6698 80.8535 60.2299 80.9935C58.5186 81.5382 53.3503 81.0819 50.1608 80.677C49.7426 80.6239 49.3108 80.7043 48.9397 80.9041C38.2657 86.6503 36.4598 88.4171 37.0112 88.6722C37.231 88.7738 37.4954 88.7231 37.7264 88.7959C39.5511 89.3713 40.6503 90.6607 41.2638 91.8919C41.7925 92.9529 40.8792 94 39.6938 94Z" fill="url(#paint0_linear_428_4263)"/>
<defs>
<linearGradient id="paint0_linear_428_4263" x1="38.5" y1="0" x2="38.5" y2="94" gradientUnits="userSpaceOnUse">
<stop offset="0.390625" stop-color="#FFEE59"/>
<stop offset="0.609375" stop-color="#FFAB7C"/>
<stop offset="1" stop-color="#5BE44F"/>
</linearGradient>
</defs>
</svg>
