<svg width="95" height="85" viewBox="0 0 95 85" fill="none" xmlns="http://www.w3.org/2000/svg">
<path d="M56.4653 40.517C56.4653 43.844 49.3038 51.8843 45.7231 55.4886L35.2564 57.7067C32.961 55.8583 26.9932 51.6071 26.9932 48.2801C26.9932 44.1213 23.9633 34.972 25.0651 28.5952C25.9465 23.4937 25.4323 18.3368 25.0651 16.3961C24.3306 15.4719 22.8615 13.3463 20.3826 18.3368C18.7573 21.6087 13.8638 20.8321 8.26321 20.0003C8.26321 21.2942 8.49039 22.2817 11.5685 25.8226C13.4966 28.0407 15.9755 37.4672 15.9755 38.0218C15.7001 38.8535 18.5647 53.4924 19.0054 55.4886C19.8011 59.0929 21.7598 60.0171 22.8615 61.0337C28.8294 65.1001 39.388 72.9555 33.8792 71.8465C26.9932 70.4603 22.5861 65.1925 20.3826 64.0835C18.6198 63.1963 17.0773 57.9839 16.5264 55.4886C16.3061 52.8269 13.8638 47.5407 12.6703 45.2303C11.3481 37.0237 11.2931 34.4175 9.36497 34.4175C9.36497 35.2492 1.3772 34.6947 0.27544 34.972L0 36.3582V38.299L0.27544 41.9033C1.81791 46.1175 3.85616 52.7161 4.68249 55.4886C4.90284 57.4847 7.89596 60.0171 9.36497 61.0337C10.9074 62.1427 13.3129 65.9318 14.3229 67.6878C14.3229 71.4584 29.3803 79.9793 36.909 83.7684H47.6512C51.6175 83.7684 57.567 78.2233 58.1179 77.9461C58.9442 77.6688 74.0016 70.3679 77.1233 67.6878C92.548 53.0488 94.7515 38.1142 93.9252 32.4767C91.5013 34.2511 79.6023 25.5454 79.6023 27.4862C77.3987 44.6759 75.1952 46.6166 71.3391 55.4886C68.2541 62.5862 56.2816 69.3512 50.681 71.8465V69.074C52.6642 65.3034 63.2595 55.4886 68.3092 51.0526C73.5426 39.1308 76.8479 6.9695 73.5426 10.2964C70.2315 13.6292 60.3214 7.80118 57.8425 8.91019C55.3635 10.0192 56.4653 36.3582 56.4653 40.517Z" fill="url(#paint0_linear_128_2676)"/>
<path d="M48.7529 1.14687C44.7866 5.13931 37.7353 2.81039 34.7055 1.14687C35.7154 8.07819 37.1293 22.3844 34.7055 24.1589C31.6756 26.3769 32.2265 51.3296 34.9809 56.8746C37.1844 61.3107 35.9909 75.8202 34.9809 82.3818C39.8287 86.1525 46.9167 84.7847 49.5793 83.2136C49.5793 74.9884 48.0919 56.9855 45.4476 55.2111C42.8034 53.4367 44.3459 40.2395 45.4476 33.8626C53.7108 7.52368 53.7108 -3.84367 48.7529 1.14687Z" fill="url(#paint1_linear_128_2676)"/>
<defs>
<linearGradient id="paint0_linear_128_2676" x1="47.175" y1="8.78355" x2="47.175" y2="83.7684" gradientUnits="userSpaceOnUse">
<stop stop-color="#FFD44F"/>
<stop offset="1" stop-color="#FF8A00"/>
</linearGradient>
<linearGradient id="paint1_linear_128_2676" x1="42.3998" y1="0" x2="42.3998" y2="84.1866" gradientUnits="userSpaceOnUse">
<stop stop-color="#FFD04B"/>
<stop offset="1" stop-color="#FF9A16"/>
</linearGradient>
</defs>
</svg>
