<svg width="89" height="74" viewBox="0 0 89 74" fill="none" xmlns="http://www.w3.org/2000/svg">
<path d="M52.9926 35.1279C52.9926 38.0125 46.2716 44.9837 42.9111 48.1086L33.0881 50.0318C30.9339 48.4292 25.3331 44.7433 25.3331 41.8587C25.3331 38.253 22.4896 30.3203 23.5236 24.7915C24.3508 20.3685 23.8682 15.8973 23.5236 14.2146C22.8342 13.4134 21.4556 11.5704 19.129 15.8973C17.6038 18.7341 13.0112 18.0608 7.75502 17.3396C7.75502 18.4614 7.96823 19.3176 10.857 22.3877C12.6665 24.3107 14.993 32.4838 14.993 32.9645C14.7345 33.6857 17.4229 46.3779 17.8365 48.1086C18.5834 51.2337 20.4216 52.0349 21.4556 52.9164C27.0564 56.442 36.9656 63.2528 31.7956 62.2913C25.3331 61.0894 21.1971 56.5221 19.129 55.5606C17.4746 54.7914 16.027 50.2721 15.51 48.1086C15.3032 45.8009 13.0112 41.2177 11.891 39.2145C10.6502 32.0992 10.5985 29.8396 8.78902 29.8396C8.78902 30.5607 1.2925 30.0799 0.258501 30.3203L0 31.5222V33.2049L0.258501 36.3299C1.7061 39.9837 3.61901 45.7048 4.39451 48.1086C4.60131 49.8394 7.41035 52.0349 8.78902 52.9164C10.2366 53.8779 12.4942 57.1631 13.442 58.6856C13.442 61.9548 27.5734 69.3426 34.6391 72.6278H44.7206C48.443 72.6278 54.0266 67.8201 54.5436 67.5798C55.3191 67.3394 69.4505 61.0093 72.3802 58.6856C86.8562 45.9933 88.9242 33.0447 88.1487 28.1569C85.8739 29.6953 74.7067 22.1473 74.7067 23.83C72.6387 38.7338 70.5707 40.4164 66.9517 48.1086C64.0565 54.2624 52.8203 60.1278 47.5641 62.2913V59.8875C49.4253 56.6183 59.369 48.1087 64.1082 44.2626C69.0197 33.9261 72.1217 6.04162 69.0197 8.92615C65.9123 11.8157 56.6116 6.7627 54.2851 7.72423C51.9586 8.68577 52.9926 31.5222 52.9926 35.1279Z" fill="url(#paint0_linear_128_2679)"/>
<path d="M45.7556 0.994362C42.0332 4.45588 35.4156 2.43666 32.572 0.994362C33.5199 7.00396 34.8468 19.4078 32.572 20.9462C29.7285 22.8693 30.2455 44.5038 32.8305 49.3115C34.8985 53.1576 33.7784 65.7377 32.8305 71.4267C37.3802 74.6959 44.0323 73.5101 46.5311 72.1479C46.5311 65.0165 45.1352 49.4076 42.6536 47.8692C40.172 46.3307 41.6196 34.8884 42.6536 29.3596C50.4086 6.52318 50.4086 -3.33254 45.7556 0.994362Z" fill="url(#paint1_linear_128_2679)"/>
<defs>
<linearGradient id="paint0_linear_128_2679" x1="44.1445" y1="7.60059" x2="44.1445" y2="72.153" gradientUnits="userSpaceOnUse">
<stop stop-color="#EA93AD"/>
<stop offset="1" stop-color="#DB3786"/>
</linearGradient>
<linearGradient id="paint1_linear_128_2679" x1="39.7932" y1="0" x2="39.7932" y2="72.9915" gradientUnits="userSpaceOnUse">
<stop stop-color="#EA93AD"/>
<stop offset="1" stop-color="#DB3786"/>
</linearGradient>
</defs>
</svg>
