<svg width="72" height="81" viewBox="0 0 72 81" fill="none" xmlns="http://www.w3.org/2000/svg">
<path d="M46.7446 39.1475C34.1866 49.3594 42.8921 70.5154 48.8147 79.817H52.7822C39.1201 51.9124 48.1821 38.999 54.5072 37.0694C69.8597 20.5937 63.6497 6.93833 60.1997 0.110669C57.2672 -0.334671 56.5772 0.60536 56.2322 2.1886L60.1997 11.985C60.9472 16.7842 59.3027 28.9356 46.7446 39.1475Z" fill="#9D5BE1"/>
<path d="M4.54577 0C22.9051 1.01006 48.9599 53.9167 59.6923 80.2438H54.2119C28.0087 18.6581 5.7446 5.61146 1.6343 3.92802C-1.65394 2.58127 0.378375 0.748194 4.54577 0Z" fill="url(#paint0_linear_128_2662)"/>
<path d="M9.59085 18.3545C22.2609 19.1282 40.2417 59.6524 47.6483 79.8178H42.3274C24.2441 32.6458 8.87934 22.6526 6.04276 21.3632C3.77349 20.3316 6.71487 18.9276 9.59085 18.3545Z" fill="url(#paint1_linear_128_2662)"/>
<path d="M44.6193 2.98828C32.1263 3.76336 66.9852 59.6153 59.6821 79.8175H64.9287C59.682 27.3385 44.6995 6.23928 47.4965 4.9475C49.734 3.91406 47.4551 3.56241 44.6193 2.98828Z" fill="url(#paint2_linear_128_2662)"/>
<path d="M66.9031 23.3139C61.4247 27.3661 62.5965 62.5471 63.8671 79.6311L67.5126 79.8217C65.6653 51.8986 68.5632 31.7536 70.2431 25.1716C70.7905 21.7592 68.2445 22.5113 66.9031 23.3139Z" fill="#BC61D8"/>
<defs>
<linearGradient id="paint0_linear_128_2662" x1="27.518" y1="0" x2="27.518" y2="80.2438" gradientUnits="userSpaceOnUse">
<stop stop-color="#FF6DC5"/>
<stop offset="0.526042" stop-color="#B475F4"/>
</linearGradient>
<linearGradient id="paint1_linear_128_2662" x1="25.4444" y1="18.3545" x2="25.4444" y2="79.8178" gradientUnits="userSpaceOnUse">
<stop stop-color="#FF6DC5"/>
<stop offset="0.526042" stop-color="#9D5BE1"/>
</linearGradient>
<linearGradient id="paint2_linear_128_2662" x1="81.5758" y1="18.2422" x2="81.5758" y2="79.8175" gradientUnits="userSpaceOnUse">
<stop stop-color="#FF6DC5"/>
<stop offset="0.526042" stop-color="#9D5BE1"/>
</linearGradient>
</defs>
</svg>
