<svg width="93" height="78" viewBox="0 0 93 78" fill="none" xmlns="http://www.w3.org/2000/svg">
<path d="M77.2234 77.1L92.4023 39.9795C87.9499 41.7952 76.4948 44.3371 66.2946 39.9795C56.0943 35.6219 56.58 62.9108 60.8301 77.1H77.2234Z" fill="url(#paint0_linear_128_2657)"/>
<path d="M15.7021 0.955504L23.2514 77.1001H47.9923C53.2488 47.9941 60.608 -7.98321 47.9923 0.955504C35.3766 9.89422 21.209 4.67997 15.7021 0.955504Z" fill="url(#paint1_linear_128_2657)"/>
<path d="M15.0984 77.174L0 32.8415C4.42887 35.0099 15.8232 38.0457 25.9693 32.8415C36.1154 27.6372 35.6323 60.2281 31.4047 77.174H15.0984Z" fill="url(#paint2_linear_128_2657)"/>
<path d="M60.9168 76.6185L76.0957 15.7029C71.6432 18.6825 60.1882 22.8539 49.9879 15.7029C39.7877 8.55191 40.2734 53.3338 44.5235 76.6185H60.9168Z" fill="url(#paint3_linear_128_2657)"/>
<defs>
<linearGradient id="paint0_linear_128_2657" x1="75.1901" y1="39.5137" x2="75.1901" y2="77.1" gradientUnits="userSpaceOnUse">
<stop stop-color="#BF94F7"/>
<stop offset="1" stop-color="#2034ED"/>
</linearGradient>
<linearGradient id="paint1_linear_128_2657" x1="35.3301" y1="0" x2="35.3301" y2="77.1001" gradientUnits="userSpaceOnUse">
<stop stop-color="#BF94F7"/>
<stop offset="1" stop-color="#2034ED"/>
</linearGradient>
<linearGradient id="paint2_linear_128_2657" x1="17.1209" y1="32.2852" x2="17.1209" y2="77.174" gradientUnits="userSpaceOnUse">
<stop stop-color="#BF94F7"/>
<stop offset="1" stop-color="#2034ED"/>
</linearGradient>
<linearGradient id="paint3_linear_128_2657" x1="58.8835" y1="14.9385" x2="58.8835" y2="76.6185" gradientUnits="userSpaceOnUse">
<stop stop-color="#BF94F7"/>
<stop offset="1" stop-color="#2034ED"/>
</linearGradient>
</defs>
</svg>
