<svg width="61" height="99" viewBox="0 0 61 99" fill="none" xmlns="http://www.w3.org/2000/svg">
<path d="M7.72363 99C20.7233 95.6519 34.7768 85.9554 22.4816 69.78C15.6936 67.6204 7.72363 61.1706 12.2996 57.3876C18.7382 55.9029 29.4519 41.0073 23.5862 37.578C23.1519 37.392 22.7776 37.2391 22.4816 37.125C22.9008 37.2396 23.2679 37.3919 23.5862 37.578C28.2262 39.5643 39.7239 45.3204 35.9295 47.8651C33.8803 50.0247 19.2504 64.6579 30.7771 67.8233C35.5159 69.925 41.616 75.3805 35.9295 77.6068C28.8213 80.3897 43.0376 85.0155 27.6686 88.9991V99H7.72363Z" fill="url(#paint0_linear_128_2653)"/>
<path d="M30.6475 98.9305C17.5851 93.5772 3.46379 78.0737 15.8183 52.2114C22.639 48.7584 30.6475 38.4459 26.0494 32.3975C19.5797 30.0235 8.81438 6.20729 14.7084 0.724261C15.1448 0.426969 15.5209 0.182497 15.8183 0C15.397 0.183205 15.0282 0.426744 14.7084 0.724261C10.046 3.90009 -1.50718 13.1035 2.30556 17.1721C4.36464 20.625 19.0651 44.0216 7.48274 49.0829C2.72111 52.4431 -3.40841 61.1659 2.30556 64.7254C9.44801 69.1749 -4.8369 76.5709 10.6062 82.9403V98.9305H30.6475Z" fill="url(#paint1_linear_128_2653)"/>
<path d="M61 99C48.0004 95.6519 33.9468 85.9554 46.242 69.78C53.03 67.6204 61 61.1706 56.424 57.3876C49.9854 55.9029 39.2717 41.0073 45.1374 37.578C45.5718 37.392 45.946 37.2391 46.242 37.125C45.8228 37.2396 45.4557 37.3919 45.1374 37.578C40.4974 39.5643 28.9997 45.3204 32.7942 47.8651C34.8434 50.0247 49.4732 64.6579 37.9465 67.8233C33.2077 69.925 27.1076 75.3805 32.7942 77.6068C39.9023 80.3897 25.686 85.0155 41.055 88.9991V99H61Z" fill="url(#paint2_linear_128_2653)"/>
<defs>
<linearGradient id="paint0_linear_128_2653" x1="21.9226" y1="49.9087" x2="21.9226" y2="98.0869" gradientUnits="userSpaceOnUse">
<stop stop-color="#97BF84"/>
<stop offset="1" stop-color="#7CB561"/>
</linearGradient>
<linearGradient id="paint1_linear_128_2653" x1="16.38" y1="20.4396" x2="16.38" y2="97.4705" gradientUnits="userSpaceOnUse">
<stop stop-color="#C6EBB4"/>
<stop offset="1" stop-color="#6CBD45"/>
</linearGradient>
<linearGradient id="paint2_linear_128_2653" x1="46.801" y1="49.9087" x2="46.801" y2="98.0869" gradientUnits="userSpaceOnUse">
<stop stop-color="#BFE6AD"/>
<stop offset="1" stop-color="#78AC5F"/>
</linearGradient>
</defs>
</svg>
