<svg width="57" height="97" viewBox="0 0 57 97" fill="none" xmlns="http://www.w3.org/2000/svg">
<path d="M13.9678 97C22.4941 90.259 37.5307 68.6354 29.4664 36.0686C25.0142 31.7205 17.4455 21.431 22.7881 15.0578C26.5531 12.3926 32.5469 6.67222 31.0764 2.25919C30.5205 1.35075 29.9564 0.580024 29.4664 0C30.291 0.691829 30.808 1.45373 31.0764 2.25919C33.0935 5.55558 35.0022 10.6654 32.8685 15.0578C31.5245 19.4058 30.7265 29.6953 38.2868 36.0686C41.3949 40.2999 46.6787 49.8832 42.9489 54.3655C38.2868 59.9684 42.9489 70.6825 32.8685 78.7031L22.7881 97H13.9678Z" fill="url(#paint0_linear_128_2699)"/>
<path d="M0 97C8.52634 90.259 23.563 68.6354 15.4986 36.0686C11.0464 31.7205 3.47774 21.431 8.82036 15.0578C12.5854 12.3926 18.5791 6.67222 17.1087 2.25919C16.5528 1.35075 15.9886 0.580024 15.4986 0C16.3232 0.691829 16.8403 1.45373 17.1087 2.25919C19.1258 5.55558 21.0345 10.6654 18.9008 15.0578C17.5567 19.4058 16.7587 29.6953 24.319 36.0686C27.4271 40.2999 32.7109 49.8832 28.9812 54.3655C24.319 59.9684 28.9812 70.6825 18.9008 78.7031L8.82036 97H0Z" fill="url(#paint1_linear_128_2699)"/>
<path d="M26.3838 97C34.9101 90.259 49.9467 68.6354 41.8824 36.0686C37.4302 31.7205 29.8615 21.431 35.2041 15.0578C38.9691 12.3926 44.9629 6.67222 43.4924 2.25919C42.9366 1.35075 42.3724 0.580024 41.8824 0C42.707 0.691829 43.2241 1.45373 43.4924 2.25919C45.5095 5.55558 47.4182 10.6654 45.2846 15.0578C43.9405 19.4058 43.1425 29.6953 50.7028 36.0686C53.8109 40.2999 59.0947 49.8832 55.365 54.3655C50.7028 59.9684 55.365 70.6825 45.2846 78.7031L35.2041 97H26.3838Z" fill="url(#paint2_linear_128_2699)"/>
<defs>
<linearGradient id="paint0_linear_128_2699" x1="29.0998" y1="0" x2="29.0998" y2="97" gradientUnits="userSpaceOnUse">
<stop stop-color="#CEF1BD"/>
<stop offset="1" stop-color="#79CD52"/>
</linearGradient>
<linearGradient id="paint1_linear_128_2699" x1="15.132" y1="0" x2="15.132" y2="97" gradientUnits="userSpaceOnUse">
<stop stop-color="#98E67B"/>
<stop offset="1" stop-color="#D9F762"/>
</linearGradient>
<linearGradient id="paint2_linear_128_2699" x1="41.5158" y1="0" x2="41.5158" y2="97" gradientUnits="userSpaceOnUse">
<stop stop-color="#D9F762"/>
<stop offset="1" stop-color="#98E67B"/>
</linearGradient>
</defs>
</svg>
