<svg width="111" height="131" viewBox="0 0 111 131" fill="none" xmlns="http://www.w3.org/2000/svg">
<ellipse cx="56.1518" cy="40.8128" rx="45.1624" ry="38.1604" fill="#1C1C1C"/>
<path d="M108.917 102.78C108.917 109.655 103.414 116.266 93.6367 121.248C83.9417 126.188 70.4434 129.287 55.4516 129.287C40.4598 129.287 26.9616 126.188 17.2665 121.248C7.48956 116.266 1.98657 109.655 1.98657 102.78C1.98657 95.905 7.48956 89.2937 17.2665 84.3118C26.9616 79.3717 40.4598 76.2721 55.4516 76.2721C70.4434 76.2721 83.9417 79.3717 93.6367 84.3118C103.414 89.2937 108.917 95.905 108.917 102.78Z" fill="#1C1C1C" stroke="black" stroke-width="3"/>
<path d="M90.0115 40.8128C90.0115 62.3941 74.5312 79.5738 55.8017 79.5738C37.0722 79.5738 21.5919 62.3941 21.5919 40.8128C21.5919 19.2315 37.0722 2.05176 55.8017 2.05176C74.5312 2.05176 90.0115 19.2315 90.0115 40.8128Z" fill="#D9D9D9" stroke="black" stroke-width="3"/>
<ellipse cx="55.8017" cy="26.4588" rx="35.0096" ry="25.9071" fill="#1C1C1C"/>
<rect x="16.6906" y="18.8563" width="78.2222" height="39.7117" rx="18.5" fill="#D9D9D9" stroke="#343434" stroke-width="3"/>
<rect x="21.5919" y="25.8583" width="66.319" height="27.8084" rx="13.9042" fill="#D9D9D9" stroke="#343434" stroke-width="3"/>
<ellipse cx="66.6547" cy="40.1125" rx="3.85105" ry="3.15086" fill="black"/>
<ellipse cx="44.2485" cy="40.1125" rx="3.85105" ry="3.15086" fill="black"/>
<rect x="4.28734" y="9.25391" width="6.4023" height="49.8142" rx="1" fill="#D9D9D9" stroke="black" stroke-width="2"/>
<path d="M6.50726 61.2704C6.00952 60.6117 6.47945 59.6676 7.30513 59.6676H10.8841C11.1425 59.6676 11.3909 59.7676 11.5772 59.9468L12.2703 59.2259L11.5772 59.9468L18.783 66.8754C19.1557 67.2338 19.1937 67.8172 18.8707 68.2209L16.0166 71.7887C15.6091 72.298 14.831 72.2872 14.4378 71.7668L6.50726 61.2704Z" fill="#D9D9D9" stroke="black" stroke-width="2"/>
</svg>
