<svg width="104" height="123" viewBox="0 0 104 123" fill="none" xmlns="http://www.w3.org/2000/svg">
<ellipse cx="50.2228" cy="51.3678" rx="50.0637" ry="36.41" fill="black"/>
<path d="M98.7865 94.7798C98.7865 101.727 93.7363 108.327 84.8908 113.275C76.0939 118.196 63.84 121.287 50.2228 121.287C36.6056 121.287 24.3516 118.196 15.5547 113.275C6.70922 108.327 1.65906 101.727 1.65906 94.7798C1.65906 87.8324 6.70922 81.233 15.5547 76.2844C24.3516 71.3631 36.6056 68.2721 50.2228 68.2721C63.84 68.2721 76.0939 71.3631 84.8908 76.2844C93.7363 81.233 98.7865 87.8324 98.7865 94.7798Z" fill="#C6C6C6" stroke="black" stroke-width="3"/>
<path d="M85.4828 37.014C85.4828 56.1147 70.1528 71.5738 51.273 71.5738C32.3933 71.5738 17.0633 56.1147 17.0633 37.014C17.0633 17.9132 32.3933 2.4541 51.273 2.4541C70.1528 2.4541 85.4828 17.9132 85.4828 37.014Z" fill="#D9D9D9" stroke="black" stroke-width="3"/>
<ellipse cx="50.2228" cy="20.9096" rx="50.0637" ry="19.9555" fill="black"/>
<rect x="1.65906" y="18.5585" width="99.9282" height="27.8084" rx="13.9042" fill="#D9D9D9" stroke="#343434" stroke-width="3"/>
<rect x="10.7615" y="22.7596" width="80.3228" height="20.1063" rx="10.0532" fill="#D9D9D9" stroke="#343434" stroke-width="3"/>
<ellipse cx="37.9694" cy="32.8128" rx="5.60153" ry="4.55125" fill="black"/>
<ellipse cx="63.1763" cy="33.513" rx="5.60153" ry="4.55125" fill="black"/>
</svg>
