<svg width="105" height="131" viewBox="0 0 105 131" fill="none" xmlns="http://www.w3.org/2000/svg">
<path d="M103.041 102.78C103.041 109.701 97.8292 116.304 88.6519 121.265C79.5343 126.193 66.8357 129.287 52.727 129.287C38.6184 129.287 25.9197 126.193 16.8021 121.265C7.62479 116.304 2.41284 109.701 2.41284 102.78C2.41284 95.8589 7.62479 89.2556 16.8021 84.2949C25.9197 79.3665 38.6184 76.2721 52.727 76.2721C66.8357 76.2721 79.5343 79.3665 88.6519 84.2949C97.8292 89.2556 103.041 95.8589 103.041 102.78Z" fill="#1C1C1C" stroke="black" stroke-width="3"/>
<path d="M86.9368 40.8128C86.9368 62.3941 71.4565 79.5738 52.727 79.5738C33.9976 79.5738 18.5172 62.3941 18.5172 40.8128C18.5172 19.2315 33.9976 2.05176 52.727 2.05176C71.4565 2.05176 86.9368 19.2315 86.9368 40.8128Z" fill="#D9D9D9" stroke="black" stroke-width="3"/>
<rect x="8.71457" y="18.1561" width="88.7251" height="37.6111" rx="18.5" fill="#D9D9D9" stroke="#343434" stroke-width="3"/>
<rect x="13.6159" y="20.9569" width="78.2222" height="32.7098" rx="16.3549" fill="#D9D9D9" stroke="#343434" stroke-width="3"/>
<ellipse cx="36.6226" cy="38.7123" rx="5.60153" ry="4.55125" fill="black"/>
<ellipse cx="65.3305" cy="38.7123" rx="5.60153" ry="4.55125" fill="black"/>
</svg>
