<svg width="178" height="178" viewBox="0 0 178 178" fill="none" xmlns="http://www.w3.org/2000/svg">
<circle cx="89" cy="89" r="89" fill="#2DAFB8"/>
<rect x="31" y="77" width="53" height="93" rx="26.5" fill="url(#paint0_linear_274_1346)"/>
<rect x="90" y="77" width="53" height="96" rx="26.5" fill="url(#paint1_linear_274_1346)"/>
<ellipse cx="87.1568" cy="57.4196" rx="39.0413" ry="36.0212" fill="url(#paint2_linear_274_1346)"/>
<path d="M39.0186 134.078L41.5 164.5C55.5 178 100 184 129.5 169.5L131.995 151.601L133 134.078C131.492 110.226 120.938 101.951 112.897 100.491H61.6345C42.7377 103.606 38.6836 124.18 39.0186 134.078Z" fill="url(#paint3_linear_274_1346)"/>
<path d="M20 145L46 110L50.5 138.5C46.8333 148.167 33.2 158.3 32 157.5C30.8 156.7 22.5 149 20 145Z" fill="url(#paint4_linear_274_1346)"/>
<path d="M158 145L126.5 111L123 135C126.667 144.667 140.763 161.242 142 160.5C147 157.5 154.5 149.5 158 145Z" fill="url(#paint5_linear_274_1346)"/>
<ellipse cx="88" cy="66.5" rx="35" ry="31.5" fill="url(#paint6_linear_274_1346)"/>
<rect x="50.5" y="46.5" width="74" height="25" rx="12.5" fill="url(#paint7_linear_274_1346)" stroke="#121F4A" stroke-width="3"/>
<rect x="76.0015" y="72.5244" width="22.3093" height="18.5911" rx="9.29555" fill="#0E193C"/>
<rect x="81.5791" y="63.2285" width="11.1547" height="19.5207" rx="5" fill="#0E193C"/>
<path d="M86.3674 86.9921C86.3674 90.966 99.6772 88.7868 102.253 88.7868C108.676 88.7868 113.841 88.1519 119.269 84.5993C123.864 81.5916 127.326 78.9254 129.439 73.6986C131.225 69.2793 131.88 64.6625 133.028 60.0727C134.13 55.6641 135.546 50.6909 137.946 46.7792C140.541 42.5517 145.921 42.7246 150.243 42.7246C157.103 42.7246 163.204 47.6473 165.929 53.9577C169.115 61.3344 169.029 66.5812 165.198 73.8315C162.808 78.3553 157.642 81.6082 152.636 81.6082C149.534 81.6082 146.432 81.6082 143.33 81.6082C142.475 81.6082 139.787 81.1617 139.143 81.7412C138.433 82.3798 137.868 84.3241 137.813 85.1975C137.76 86.0464 135.168 84.5993 136.019 84.5993" stroke="#121F4A" stroke-width="4" stroke-linecap="round"/>
<defs>
<linearGradient id="paint0_linear_274_1346" x1="57.5" y1="77" x2="57.5" y2="170" gradientUnits="userSpaceOnUse">
<stop stop-color="#F8AAD9"/>
<stop offset="1" stop-color="#5E0887"/>
</linearGradient>
<linearGradient id="paint1_linear_274_1346" x1="116.5" y1="77" x2="116.5" y2="173" gradientUnits="userSpaceOnUse">
<stop stop-color="#F8AAD9"/>
<stop offset="1" stop-color="#5E0887"/>
</linearGradient>
<linearGradient id="paint2_linear_274_1346" x1="87.1568" y1="21.3984" x2="87.1568" y2="93.4408" gradientUnits="userSpaceOnUse">
<stop stop-color="#FCBF2C"/>
<stop offset="0.9999" stop-color="#E38D05"/>
<stop offset="1" stop-color="#132251"/>
</linearGradient>
<linearGradient id="paint3_linear_274_1346" x1="86" y1="100.491" x2="86" y2="177.894" gradientUnits="userSpaceOnUse">
<stop stop-color="#FFC530"/>
<stop offset="1" stop-color="#E08700"/>
</linearGradient>
<linearGradient id="paint4_linear_274_1346" x1="35.25" y1="110" x2="35.25" y2="157.544" gradientUnits="userSpaceOnUse">
<stop stop-color="#FFC530"/>
<stop offset="1" stop-color="#E08700"/>
</linearGradient>
<linearGradient id="paint5_linear_274_1346" x1="140.5" y1="111" x2="140.5" y2="160.524" gradientUnits="userSpaceOnUse">
<stop stop-color="#FFC530"/>
<stop offset="1" stop-color="#E08700"/>
</linearGradient>
<linearGradient id="paint6_linear_274_1346" x1="88" y1="35" x2="88" y2="98" gradientUnits="userSpaceOnUse">
<stop stop-color="#AF9368"/>
<stop offset="1" stop-color="#BE9D6D"/>
</linearGradient>
<linearGradient id="paint7_linear_274_1346" x1="87.5" y1="45" x2="87.5" y2="73" gradientUnits="userSpaceOnUse">
<stop stop-color="#77C4CA"/>
<stop offset="1" stop-color="#2DAFB8"/>
</linearGradient>
</defs>
</svg>
